<?xml version="1.0" encoding="UTF-8" standalone="no"?>
<!-- Created with Inkscape (http://www.inkscape.org/) -->

<svg
   width="800"
   height="800"
   viewBox="0 0 211.66666 211.66667"
   version="1.1"
   id="svg1"
   xml:space="preserve"
   inkscape:version="1.3 (0e150ed, 2023-07-21)"
   sodipodi:docname="m.svg"
   xmlns:inkscape="http://www.inkscape.org/namespaces/inkscape"
   xmlns:sodipodi="http://sodipodi.sourceforge.net/DTD/sodipodi-0.dtd"
   xmlns="http://www.w3.org/2000/svg"
   xmlns:svg="http://www.w3.org/2000/svg"><sodipodi:namedview
     id="namedview1"
     pagecolor="#ffffff"
     bordercolor="#000000"
     borderopacity="0.25"
     inkscape:showpageshadow="2"
     inkscape:pageopacity="0.0"
     inkscape:pagecheckerboard="0"
     inkscape:deskcolor="#d1d1d1"
     inkscape:document-units="mm"
     inkscape:zoom="0.63029704"
     inkscape:cx="272.88721"
     inkscape:cy="223.70405"
     inkscape:window-width="2560"
     inkscape:window-height="1027"
     inkscape:window-x="0"
     inkscape:window-y="25"
     inkscape:window-maximized="1"
     inkscape:current-layer="svg1" /><defs
     id="defs1"><clipPath
       clipPathUnits="userSpaceOnUse"
       id="clipPath3"><rect
         style="fill:#008000;fill-opacity:1;stroke-width:0.404119"
         id="rect4"
         width="177.045"
         height="177.045"
         x="26.761999"
         y="26.761997"
         rx="0"
         ry="0" /></clipPath></defs><g
     style="display:inline;fill:#c3d7ee;fill-opacity:1"
     id="g3"
     transform="matrix(1.1955529,0,0,1.1955529,-31.995385,-31.995383)"
     clip-path="url(#clipPath3)"><g
       id="g2"
       style="fill:#c3d7ee;fill-opacity:1">&#10;	<g
   id="g1"
   style="fill:#c3d7ee;fill-opacity:1">&#10;		<path
   d="m 230.569,51.466 c 0,-11.351 -9.236,-20.587 -20.587,-20.587 -9.453,0 -17.356,6.442 -19.762,15.14 l -17.345,-2.287 c 0.005,-0.17 0.051,-0.329 0.051,-0.501 0,-9.083 -7.388,-16.469 -16.469,-16.469 -9.081,0 -16.469,7.386 -16.469,16.469 0,4.258 1.666,8.107 4.327,11.033 l -7.167,17.917 c -0.426,-0.044 -0.84,-0.129 -1.278,-0.129 -6.811,0 -12.352,5.541 -12.352,12.352 0,6.811 5.541,12.352 12.352,12.352 6.811,0 12.352,-5.541 12.352,-12.352 0,-3.398 -1.381,-6.478 -3.608,-8.713 l 6.751,-16.878 c 1.613,0.529 3.304,0.887 5.091,0.887 5.964,0 11.149,-3.217 14.039,-7.977 l 19.181,2.528 c 1.117,8.136 6.953,14.712 14.691,16.924 l -9.608,25.622 c -14.379,0.434 -25.951,12.239 -25.951,26.721 0,5.877 1.927,11.301 5.152,15.721 l -18.205,14.564 c -5.786,-9.498 -16.209,-15.874 -28.12,-15.874 -16.734,0 -30.562,12.554 -32.639,28.732 l -22.038,-6.578 c 0.743,-2.454 1.152,-5.051 1.152,-7.743 0,-14.756 -12.006,-26.762 -26.762,-26.762 -3.342,0 -6.529,0.643 -9.481,1.767 l -4.782,-14.346 c 4.882,-3.767 8.087,-9.612 8.087,-16.242 C 41.172,85.406 31.936,76.17 20.585,76.17 9.234,76.17 0,85.406 0,96.757 c 0,11.351 9.236,20.587 20.587,20.587 1.746,0 3.414,-0.285 5.035,-0.696 l 4.956,14.869 c -6.085,4.91 -9.991,12.416 -9.991,20.825 0,14.756 12.006,26.762 26.762,26.762 9.091,0 17.126,-4.566 21.965,-11.516 l 24.206,7.225 c 0.394,0.117 0.79,0.173 1.18,0.173 0.095,0 0.183,-0.038 0.277,-0.045 2.016,16.244 15.879,28.866 32.659,28.866 18.162,0 32.938,-14.777 32.938,-32.938 0,-3.227 -0.487,-6.338 -1.355,-9.287 l 20.396,-16.317 c 0.068,-0.054 0.096,-0.133 0.16,-0.191 4.434,3.258 9.885,5.208 15.797,5.208 14.756,0 26.762,-12.006 26.762,-26.762 0,-12.121 -8.107,-22.371 -19.178,-25.651 l 9.793,-26.115 c 9.939,-1.454 17.62,-9.953 17.62,-20.288 z m -94.698,37.056 c -2.27,0 -4.117,-1.845 -4.117,-4.117 0,-2.272 1.847,-4.117 4.117,-4.117 2.27,0 4.117,1.845 4.117,4.117 0,2.272 -1.847,4.117 -4.117,4.117 z m 20.587,-37.056 c -4.541,0 -8.235,-3.695 -8.235,-8.235 0,-4.54 3.693,-8.235 8.235,-8.235 4.541,0 8.235,3.695 8.235,8.235 0,4.54 -3.694,8.235 -8.235,8.235 z M 20.587,109.109 c -6.811,0 -12.352,-5.541 -12.352,-12.352 0,-6.811 5.541,-12.352 12.352,-12.352 6.811,0 12.352,5.541 12.352,12.352 0,6.811 -5.541,12.352 -12.352,12.352 z m 26.762,61.759 c -10.217,0 -18.528,-8.311 -18.528,-18.528 0,-10.217 8.311,-18.528 18.528,-18.528 10.217,0 18.528,8.311 18.528,18.528 0,10.217 -8.311,18.528 -18.528,18.528 z m 80.287,24.704 c -13.623,0 -24.704,-11.081 -24.704,-24.704 0,-13.623 11.081,-24.704 24.704,-24.704 13.623,0 24.704,11.081 24.704,24.704 0,13.623 -11.081,24.704 -24.704,24.704 z M 214.1,123.519 c 0,10.217 -8.311,18.528 -18.528,18.528 -10.217,0 -18.528,-8.311 -18.528,-18.528 0,-10.217 8.311,-18.528 18.528,-18.528 10.217,0 18.528,8.311 18.528,18.528 z M 197.631,51.466 c 0,-6.811 5.541,-12.352 12.352,-12.352 6.811,0 12.352,5.541 12.352,12.352 0,6.811 -5.541,12.352 -12.352,12.352 -6.812,0 -12.352,-5.54 -12.352,-12.352 z"
   id="path1"
   style="fill:#c3d7ee;fill-opacity:1" />&#10;	</g>&#10;</g></g><path
     d="M 191.02433,22.44977 V 189.2169 H 169.09398 V 64.864525 L 113.66561,189.2169 H 98.24206 L 42.572691,64.62354 V 189.2169 H 20.642333 V 22.44977 h 23.617308 l 61.694189,137.84796 61.6942,-137.84796 z"
     id="text1"
     style="font-size:282.222px;font-family:Poppins;-inkscape-font-specification:Poppins;display:inline;fill:#1a658f;stroke-width:0.22593"
     aria-label="M"
     inkscape:label="M" /></svg>
