<?xml version="1.0" encoding="UTF-8" standalone="no"?>
<!-- Created with Inkscape (http://www.inkscape.org/) -->

<svg
   width="800"
   height="800"
   viewBox="0 0 211.66666 211.66667"
   version="1.1"
   id="svg1"
   xml:space="preserve"
   inkscape:version="1.3 (0e150ed, 2023-07-21)"
   sodipodi:docname="micm-2.svg"
   xmlns:inkscape="http://www.inkscape.org/namespaces/inkscape"
   xmlns:sodipodi="http://sodipodi.sourceforge.net/DTD/sodipodi-0.dtd"
   xmlns="http://www.w3.org/2000/svg"
   xmlns:svg="http://www.w3.org/2000/svg"><sodipodi:namedview
     id="namedview1"
     pagecolor="#ffffff"
     bordercolor="#000000"
     borderopacity="0.25"
     inkscape:showpageshadow="2"
     inkscape:pageopacity="0.0"
     inkscape:pagecheckerboard="0"
     inkscape:deskcolor="#d1d1d1"
     inkscape:document-units="mm"
     inkscape:zoom="0.51252607"
     inkscape:cx="413.6375"
     inkscape:cy="429.24646"
     inkscape:window-width="1728"
     inkscape:window-height="1051"
     inkscape:window-x="0"
     inkscape:window-y="38"
     inkscape:window-maximized="1"
     inkscape:current-layer="layer1" /><defs
     id="defs1" /><g
     inkscape:label="Layer 1"
     inkscape:groupmode="layer"
     id="layer1"><g
       style="fill:#000000;fill-opacity:0.12149533"
       id="g1"
       transform="matrix(0.37085252,0,0,0.42542015,13.861908,0.32913613)"><g
         id="g7"
         style="fill:#000000;fill-opacity:0.12149533">&#10;	<g
   id="g6"
   style="fill:#000000;fill-opacity:0.12149533">&#10;		<g
   id="g5"
   style="fill:#000000;fill-opacity:0.12149533">&#10;			<path
   d="m 440,384 c -17.112,0 -32.84,7.608 -43.416,20.68 -4,-1.92 -8.232,-3.264 -12.592,-4.008 C 384,400.448 384,400.224 384,400 384,386.464 379.688,373.336 371.744,362.432 379.784,349.68 384,335.136 384,320 c 0,-38.536 -27.8,-71.336 -64.832,-78.48 0.032,-0.184 0.016,-0.368 0.048,-0.552 0.472,-2.928 0.784,-5.912 0.784,-8.968 0,-2.024 -0.12,-4.024 -0.328,-5.992 -0.04,-0.336 -0.112,-0.672 -0.152,-1.016 -0.208,-1.672 -0.472,-3.328 -0.832,-4.96 -0.016,-0.064 -0.016,-0.136 -0.032,-0.2 C 343.368,210.568 360,187.04 360,160 360,141.96 352.576,125.176 339.448,113.08 342.472,105.008 344,96.6 344,88 344,48.296 311.704,16 272,16 260.04,16 248.344,18.976 237.848,24.656 225.464,16.784 210.216,14.112 195.728,17.368 183.904,6.272 168.224,0 152,0 116.712,0 88,28.712 88,64 c 0,14.728 5.176,28.76 14.184,40 H 88 v 16 h 16 V 261.816 L 6.352,427.064 C 2.192,434.104 0,442.144 0,450.304 0,475.504 20.504,496 45.696,496 h 228.608 c 20.496,0 37.88,-13.56 43.656,-32.184 0.688,0.024 1.36,0.144 2.04,0.144 V 464 c 0.128,0 0.248,-0.016 0.376,-0.016 0.232,0 0.464,-0.024 0.696,-0.032 3,-0.048 5.944,-0.328 8.832,-0.768 0.232,-0.04 0.48,-0.024 0.712,-0.064 6.408,19.24 24.608,32.88 45.384,32.88 11.168,0 21.912,-3.984 30.488,-11.128 9.632,7.224 21.28,11.128 33.512,11.128 30.872,0 56,-25.128 56,-56 0,-30.872 -25.128,-56 -56,-56 z M 120,266.184 V 120 h 80 v 136.64 c -27.088,3.904 -48,27.208 -48,55.36 0,2.72 0.264,5.376 0.64,8 H 88.2 Z M 274.304,480 H 192 45.696 C 29.32,480 16,466.68 16,450.304 16,445 17.432,439.776 20.136,435.192 L 78.744,336 h 78.736 c 9.008,18.888 28.24,32 50.52,32 0.264,0 0.528,0 0.808,-0.008 C 212.512,386.232 228.68,400 248,400 c 9.736,0 18.544,-3.632 25.488,-9.432 l 26.376,44.624 C 302.568,439.776 304,445 304,450.304 304,466.68 290.68,480 274.304,480 Z m 55.256,-32.992 c -0.256,0.048 -0.512,0.12 -0.768,0.168 -2.528,0.464 -5.144,0.672 -7.792,0.728 -0.384,0.008 -0.768,0.024 -1.152,0.024 -0.384,-7.336 -2.44,-14.512 -6.192,-20.872 L 284.064,377 C 286.52,371.824 288,366.104 288,360 h -16 c 0,13.232 -10.768,24 -24,24 -13.232,0 -24,-10.768 -24.048,-23.216 l 0.12,-11.016 -9.36,1.616 C 212.304,351.8 210.112,352 208,352 c -22.056,0 -40,-17.944 -40,-40 0,-22.056 17.944,-40 40,-40 22.056,0 40,17.944 40,40 h 16 c 0,-28.152 -20.912,-51.456 -48,-55.36 V 120 h 16 V 104 H 216 201.824 C 210.832,92.8 216,78.816 216,64 h -16 c 0,16.144 -8.04,31.064 -21.488,40 h -54.36 l 0.416,-0.6 C 111.688,94.408 104,79.68 104,64 c 0,-26.472 21.528,-48 48,-48 13.4,0 26.312,5.72 35.424,15.696 l 3.464,3.8 4.888,-1.568 c 12.568,-4.024 26.392,-1.552 36.776,6.544 l 1.168,0.912 C 242.792,49.016 248,60.152 248,72 h 16 c 0,-13.224 -4.688,-25.784 -13,-35.76 6.664,-2.72 13.752,-4.24 21,-4.24 30.872,0 56,25.128 56,56 0,8.28 -1.832,16.344 -5.456,23.976 l -0.088,0.192 C 313.168,131.52 293.52,144 272,144 v 16 c 24.16,0 46.472,-12.248 59.712,-31.904 7.856,8.72 12.288,19.928 12.288,31.904 0,20.288 -12.552,37.832 -31.112,44.768 C 303.304,187.632 284.992,176 264,176 v 16 c 16.488,0 30.672,10.04 36.784,24.32 l 0.136,0.352 c 0.472,1.144 0.736,2.376 1.112,3.568 0.424,1.376 0.92,2.736 1.2,4.136 0.48,2.472 0.768,5.016 0.768,7.624 0,2.504 -0.296,4.928 -0.736,7.304 -0.232,1.224 -0.624,2.432 -0.976,3.648 C 297.488,259.664 282.232,272 264,272 v 16 c 21.928,0 40.896,-12.704 50.088,-31.104 30.64,4.88 53.912,31.576 53.912,63.104 0,13.76 -4.368,26.904 -12.632,38.048 l -0.208,0.288 C 343.096,374.4 324.12,384 304,384 v 16 c 21.712,0 42.328,-8.968 57.28,-24.312 4.344,7.344 6.72,15.704 6.72,24.312 0,1.784 -0.168,3.728 -0.448,5.936 -2.56,20.8 -18.048,37.072 -37.992,41.072 z M 440,480 c -10.64,0 -20.656,-4.144 -28.208,-11.648 l -6.088,-6.056 -5.608,6.504 C 393.944,475.912 385.168,480 376,480 c -13.672,0 -25.64,-8.912 -30.024,-21.52 17.432,-7.704 30.784,-22.936 35.808,-41.912 4.456,0.832 8.72,2.584 12.528,5.256 l 0.872,0.608 C 403.208,428.472 408,437.936 408,448 h 16 c 0,-12.88 -5.256,-25.072 -14.248,-34.008 C 417.288,405.16 428.16,400 440,400 c 22.056,0 40,17.944 40,40 0,22.056 -17.944,40 -40,40 z"
   id="path1"
   style="fill:#000000;fill-opacity:0.12149533" />&#10;			<path
   d="m 408,296 c 0,17.648 14.352,32 32,32 17.648,0 32,-14.352 32,-32 0,-17.648 -14.352,-32 -32,-32 -17.648,0 -32,14.352 -32,32 z m 48,0 c 0,8.824 -7.176,16 -16,16 -8.824,0 -16,-7.176 -16,-16 0,-8.824 7.176,-16 16,-16 8.824,0 16,7.176 16,16 z"
   id="path2"
   style="fill:#000000;fill-opacity:0.12149533" />&#10;			<path
   d="m 400,240 c 22.056,0 40,-17.944 40,-40 0,-22.056 -17.944,-40 -40,-40 -22.056,0 -40,17.944 -40,40 0,22.056 17.944,40 40,40 z m 0,-64 c 13.232,0 24,10.768 24,24 0,13.232 -10.768,24 -24,24 -13.232,0 -24,-10.768 -24,-24 0,-13.232 10.768,-24 24,-24 z"
   id="path3"
   style="fill:#000000;fill-opacity:0.12149533" />&#10;			<path
   d="m 112,352 c -17.648,0 -32,14.352 -32,32 0,17.648 14.352,32 32,32 17.648,0 32,-14.352 32,-32 0,-17.648 -14.352,-32 -32,-32 z m 0,48 c -8.824,0 -16,-7.176 -16,-16 0,-8.824 7.176,-16 16,-16 8.824,0 16,7.176 16,16 0,8.824 -7.176,16 -16,16 z"
   id="path4"
   style="fill:#000000;fill-opacity:0.12149533" />&#10;			<path
   d="m 240,432 c 0,-26.472 -21.528,-48 -48,-48 -26.472,0 -48,21.528 -48,48 0,26.472 21.528,48 48,48 26.472,0 48,-21.528 48,-48 z m -48,32 c -17.648,0 -32,-14.352 -32,-32 0,-17.648 14.352,-32 32,-32 17.648,0 32,14.352 32,32 0,17.648 -14.352,32 -32,32 z"
   id="path5"
   style="fill:#000000;fill-opacity:0.12149533" />&#10;		</g>&#10;	</g>&#10;</g></g><g
       id="text1"
       style="font-size:31.75px;font-family:Poppins;-inkscape-font-specification:Poppins;fill:#a8c700;stroke-width:0.213784"
       aria-label="Model&#10;Independent&#10;Chemical&#10;Module"><path
         style="fill:#1a658f"
         d="m 29.441268,35.935708 v 21.971 h -2.88925 v -16.383 l -7.3025,16.383 h -2.032 L 9.8832678,41.491958 v 16.41475 h -2.88925 v -21.971 h 3.1115002 l 8.128,18.161 8.128,-18.161 z m 12.477691,22.25675 q -2.44475,0 -4.445,-1.11125 -1.9685,-1.11125 -3.1115,-3.14325 -1.11125,-2.06375 -1.11125,-4.7625 0,-2.667 1.143,-4.699 1.17475,-2.06375 3.175,-3.14325 2.00025,-1.11125 4.47675,-1.11125 2.4765,0 4.47675,1.11125 2.00025,1.0795 3.14325,3.1115 1.17475,2.032 1.17475,4.73075 0,2.69875 -1.2065,4.7625 -1.17475,2.032 -3.20675,3.14325 -2.032,1.11125 -4.5085,1.11125 z m 0,-2.54 q 1.55575,0 2.921,-0.73025 1.36525,-0.73025 2.19075,-2.19075 0.85725,-1.4605 0.85725,-3.556 0,-2.0955 -0.8255,-3.556 -0.8255,-1.4605 -2.159,-2.159 -1.3335,-0.73025 -2.88925,-0.73025 -1.5875,0 -2.921,0.73025 -1.30175,0.6985 -2.0955,2.159 -0.79375,1.4605 -0.79375,3.556 0,2.12725 0.762,3.58775 0.79375,1.4605 2.0955,2.19075 1.30175,0.6985 2.8575,0.6985 z m 11.652228,-6.50875 q 0,-2.667 1.0795,-4.66725 1.0795,-2.032 2.95275,-3.14325 1.905,-1.11125 4.2545,-1.11125 2.032,0 3.77825,0.9525 1.74625,0.92075 2.667,2.44475 v -9.2075 h 2.921 v 23.495 h -2.921 v -3.27025 q -0.85725,1.55575 -2.54,2.57175 -1.68275,0.98425 -3.937,0.98425 -2.31775,0 -4.22275,-1.143 -1.87325,-1.143 -2.95275,-3.20675 -1.0795,-2.06375 -1.0795,-4.699 z m 14.732,0.03175 q 0,-1.9685 -0.79375,-3.429 -0.79375,-1.4605 -2.159,-2.2225 -1.3335,-0.79375 -2.95275,-0.79375 -1.61925,0 -2.95275,0.762 -1.3335,0.762 -2.12725,2.2225 -0.79375,1.4605 -0.79375,3.429 0,2.00025 0.79375,3.4925 0.79375,1.4605 2.12725,2.25425 1.3335,0.762 2.95275,0.762 1.61925,0 2.95275,-0.762 1.36525,-0.79375 2.159,-2.25425 0.79375,-1.49225 0.79375,-3.46075 z m 23.68546,-0.635 q 0,0.8255 -0.09525,1.74625 h -13.9065 q 0.15875,2.57175 1.74625,4.03225 1.61925,1.42875 3.90525,1.42875 1.87325,0 3.1115,-0.85725 1.27,-0.889 1.778,-2.3495 h 3.1115 q -0.6985,2.50825 -2.794,4.09575 -2.0955,1.55575 -5.207,1.55575 -2.4765,0 -4.445,-1.11125 -1.93675,-1.11125 -3.048,-3.14325 -1.11125,-2.06375 -1.11125,-4.7625 0,-2.69875 1.0795,-4.73075 1.0795,-2.032 3.01625,-3.1115 1.9685,-1.11125 4.5085,-1.11125 2.4765,0 4.3815,1.0795 1.905,1.0795 2.921,2.9845 1.04775,1.87325 1.04775,4.2545 z m -2.9845,-0.60325 q 0,-1.651 -0.73025,-2.82575 -0.73025,-1.2065 -2.00025,-1.80975 -1.23825,-0.635 -2.76225,-0.635 -2.19075,0 -3.7465,1.397 -1.524,1.397 -1.74625,3.8735 z m 9.683717,-13.5255 v 23.495 h -2.88925 v -23.495 z"
         id="path6" /><path
         style="fill:#1a658f"
         d="m 9.8832678,75.464458 v 22.12975 h -2.88925 v -22.12975 z m 13.3984482,4.41325 q 3.175,0 5.1435,1.93675 1.9685,1.905 1.9685,5.5245 v 10.25525 h -2.8575 v -9.8425 q 0,-2.6035 -1.30175,-3.96875 -1.30175,-1.397 -3.556,-1.397 -2.286,0 -3.65125,1.42875 -1.3335,1.42875 -1.3335,4.15925 v 9.62025 h -2.88925 v -17.399 h 2.88925 v 2.4765 q 0.85725,-1.3335 2.31775,-2.06375 1.49225,-0.73025 3.27025,-0.73025 z m 10.76323,8.9535 q 0,-2.667 1.0795,-4.66725 1.0795,-2.032 2.95275,-3.14325 1.905,-1.11125 4.2545,-1.11125 2.032,0 3.77825,0.9525 1.74625,0.92075 2.667,2.44475 v -9.2075 h 2.921 v 23.495 h -2.921 v -3.27025 q -0.85725,1.55575 -2.54,2.57175 -1.68275,0.98425 -3.937,0.98425 -2.31775,0 -4.22275,-1.143 -1.87325,-1.143 -2.95275,-3.20675 -1.0795,-2.06375 -1.0795,-4.699 z m 14.732,0.03175 q 0,-1.9685 -0.79375,-3.429 -0.79375,-1.4605 -2.159,-2.2225 -1.3335,-0.79375 -2.95275,-0.79375 -1.61925,0 -2.95275,0.762 -1.3335,0.762 -2.12725,2.2225 -0.79375,1.4605 -0.79375,3.429 0,2.00025 0.79375,3.4925 0.79375,1.4605 2.12725,2.25425 1.3335,0.762 2.95275,0.762 1.61925,0 2.95275,-0.762 1.36525,-0.79375 2.159,-2.25425 0.79375,-1.49225 0.79375,-3.46075 z m 23.685459,-0.635 q 0,0.8255 -0.09525,1.74625 h -13.9065 q 0.15875,2.57175 1.74625,4.03225 1.61925,1.42875 3.90525,1.42875 1.87325,0 3.1115,-0.85725 1.27,-0.889 1.778,-2.3495 h 3.1115 q -0.6985,2.50825 -2.794,4.09575 -2.0955,1.55575 -5.207,1.55575 -2.4765,0 -4.445,-1.11125 -1.93675,-1.11125 -3.048,-3.14325 -1.11125,-2.06375 -1.11125,-4.7625 0,-2.69875 1.0795,-4.73075 1.0795,-2.032 3.01625,-3.1115 1.9685,-1.11125 4.5085,-1.11125 2.4765,0 4.3815,1.0795 1.905,1.0795 2.921,2.9845 1.04775,1.87325 1.04775,4.2545 z m -2.9845,-0.60325 q 0,-1.651 -0.73025,-2.82575 -0.73025,-1.2065 -2.00025,-1.80975 -1.23825,-0.635 -2.76225,-0.635 -2.19075,0 -3.7465,1.397 -1.524,1.397 -1.74625,3.8735 z m 9.683721,-4.22275 q 0.85725,-1.49225 2.54,-2.4765 1.7145,-1.016 3.96875,-1.016 2.31775,0 4.191,1.11125 1.905,1.11125 2.9845,3.14325 1.0795,2.00025 1.0795,4.66725 0,2.63525 -1.0795,4.699 -1.0795,2.06375 -2.9845,3.20675 -1.87325,1.143 -4.191,1.143 -2.2225,0 -3.937,-0.98425 -1.68275,-1.016 -2.57175,-2.50825 v 11.461752 h -2.88925 V 80.195208 h 2.88925 z m 11.811,5.42925 q 0,-1.9685 -0.79375,-3.429 -0.79375,-1.4605 -2.159,-2.2225 -1.3335,-0.762 -2.95275,-0.762 -1.5875,0 -2.95275,0.79375 -1.3335,0.762 -2.159,2.25425 -0.79375,1.4605 -0.79375,3.39725 0,1.9685 0.79375,3.46075 0.8255,1.4605 2.159,2.25425 1.36525,0.762 2.95275,0.762 1.61925,0 2.95275,-0.762 1.36525,-0.79375 2.159,-2.25425 0.79375,-1.49225 0.79375,-3.4925 z m 22.637714,-0.60325 q 0,0.8255 -0.0952,1.74625 H 99.608586 q 0.15875,2.57175 1.746254,4.03225 1.61925,1.42875 3.90525,1.42875 1.87325,0 3.1115,-0.85725 1.27,-0.889 1.778,-2.3495 h 3.1115 q -0.6985,2.50825 -2.794,4.09575 -2.0955,1.55575 -5.207,1.55575 -2.4765,0 -4.445,-1.11125 -1.936754,-1.11125 -3.048004,-3.14325 -1.11125,-2.06375 -1.11125,-4.7625 0,-2.69875 1.0795,-4.73075 1.0795,-2.032 3.016254,-3.1115 1.9685,-1.11125 4.5085,-1.11125 2.4765,0 4.3815,1.0795 1.905,1.0795 2.921,2.9845 1.04775,1.87325 1.04775,4.2545 z m -2.9845,-0.60325 q 0,-1.651 -0.73025,-2.82575 -0.73025,-1.2065 -2.00025,-1.80975 -1.23825,-0.635 -2.76225,-0.635 -2.19075,0 -3.7465,1.397 -1.524004,1.397 -1.746254,3.8735 z m 15.27171,-7.747 q 3.175,0 5.1435,1.93675 1.9685,1.905 1.9685,5.5245 v 10.25525 h -2.8575 v -9.8425 q 0,-2.6035 -1.30175,-3.96875 -1.30175,-1.397 -3.556,-1.397 -2.286,0 -3.65125,1.42875 -1.3335,1.42875 -1.3335,4.15925 v 9.62025 h -2.88925 v -17.399 h 2.88925 v 2.4765 q 0.85725,-1.3335 2.31775,-2.06375 1.49225,-0.73025 3.27025,-0.73025 z m 10.76323,8.9535 q 0,-2.667 1.0795,-4.66725 1.0795,-2.032 2.95275,-3.14325 1.905,-1.11125 4.2545,-1.11125 2.032,0 3.77825,0.9525 1.74625,0.92075 2.667,2.44475 v -9.2075 h 2.921 v 23.495 h -2.921 v -3.27025 q -0.85725,1.55575 -2.54,2.57175 -1.68275,0.98425 -3.937,0.98425 -2.31775,0 -4.22275,-1.143 -1.87325,-1.143 -2.95275,-3.20675 -1.0795,-2.06375 -1.0795,-4.699 z m 14.732,0.03175 q 0,-1.9685 -0.79375,-3.429 -0.79375,-1.4605 -2.159,-2.2225 -1.3335,-0.79375 -2.95275,-0.79375 -1.61925,0 -2.95275,0.762 -1.3335,0.762 -2.12725,2.2225 -0.79375,1.4605 -0.79375,3.429 0,2.00025 0.79375,3.4925 0.79375,1.4605 2.12725,2.25425 1.3335,0.762 2.95275,0.762 1.61925,0 2.95275,-0.762 1.36525,-0.79375 2.159,-2.25425 0.79375,-1.49225 0.79375,-3.46075 z m 23.68547,-0.635 q 0,0.8255 -0.0952,1.74625 h -13.9065 q 0.15875,2.57175 1.74625,4.03225 1.61925,1.42875 3.90525,1.42875 1.87325,0 3.1115,-0.85725 1.27,-0.889 1.778,-2.3495 h 3.1115 q -0.6985,2.50825 -2.794,4.09575 -2.0955,1.55575 -5.207,1.55575 -2.4765,0 -4.445,-1.11125 -1.93675,-1.11125 -3.048,-3.14325 -1.11125,-2.06375 -1.11125,-4.7625 0,-2.69875 1.0795,-4.73075 1.0795,-2.032 3.01625,-3.1115 1.9685,-1.11125 4.5085,-1.11125 2.4765,0 4.3815,1.0795 1.905,1.0795 2.921,2.9845 1.04775,1.87325 1.04775,4.2545 z m -2.9845,-0.60325 q 0,-1.651 -0.73025,-2.82575 -0.73025,-1.2065 -2.00025,-1.80975 -1.23825,-0.635 -2.76225,-0.635 -2.19075,0 -3.7465,1.397 -1.524,1.397 -1.74625,3.8735 z m 15.27171,-7.747 q 3.175,0 5.1435,1.93675 1.9685,1.905 1.9685,5.5245 v 10.25525 h -2.8575 v -9.8425 q 0,-2.6035 -1.30175,-3.96875 -1.30175,-1.397 -3.556,-1.397 -2.286,0 -3.65125,1.42875 -1.3335,1.42875 -1.3335,4.15925 v 9.62025 h -2.88925 v -17.399 h 2.88925 v 2.4765 q 0.85725,-1.3335 2.31775,-2.06375 1.49225,-0.73025 3.27025,-0.73025 z m 15.36698,2.69875 v 10.25525 q 0,1.27 0.53975,1.80975 0.53975,0.508 1.87325,0.508 h 2.12725 v 2.44475 h -2.6035 q -2.413,0 -3.6195,-1.11125 -1.2065,-1.11125 -1.2065,-3.65125 v -10.25525 h -2.25425 v -2.38125 h 2.25425 v -4.3815 h 2.88925 v 4.3815 h 4.54025 v 2.38125 z"
         id="path7" /><path
         style="fill:#1a658f"
         d="m 5.9145178,126.20096 q 0,-3.2385 1.4605,-5.81025 1.4605,-2.6035 3.9687502,-4.064 2.54,-1.4605 5.61975,-1.4605 3.6195,0 6.31825,1.74625 2.69875,1.74625 3.937,4.953 h -3.46075 q -0.92075,-2.00025 -2.667,-3.07975 -1.7145,-1.0795 -4.1275,-1.0795 -2.31775,0 -4.15925,1.0795 -1.8415,1.0795 -2.8892502,3.07975 -1.04775,1.9685 -1.04775,4.6355 0,2.63525 1.04775,4.6355 1.0477502,1.9685 2.8892502,3.048 1.8415,1.0795 4.15925,1.0795 2.413,0 4.1275,-1.04775 1.74625,-1.0795 2.667,-3.07975 h 3.46075 q -1.23825,3.175 -3.937,4.92125 -2.69875,1.7145 -6.31825,1.7145 -3.07975,0 -5.61975,-1.42875 -2.5082502,-1.4605 -3.9687502,-4.03225 -1.4605,-2.57175 -1.4605,-5.81025 z m 34.2264782,-6.63575 q 1.9685,0 3.556,0.85725 1.5875,0.8255 2.4765,2.50825 0.92075,1.68275 0.92075,4.09575 v 10.25525 h -2.8575 v -9.8425 q 0,-2.6035 -1.30175,-3.96875 -1.30175,-1.397 -3.556,-1.397 -2.286,0 -3.65125,1.42875 -1.3335,1.42875 -1.3335,4.15925 v 9.62025 h -2.88925 v -23.495 h 2.88925 v 8.5725 q 0.85725,-1.3335 2.3495,-2.06375 1.524,-0.73025 3.39725,-0.73025 z m 27.558981,8.35025 q 0,0.8255 -0.09525,1.74625 h -13.9065 q 0.15875,2.57175 1.74625,4.03225 1.61925,1.42875 3.90525,1.42875 1.87325,0 3.1115,-0.85725 1.27,-0.889 1.778,-2.3495 h 3.1115 q -0.6985,2.50825 -2.794,4.09575 -2.0955,1.55575 -5.207,1.55575 -2.4765,0 -4.445,-1.11125 -1.93675,-1.11125 -3.048,-3.14325 -1.11125,-2.06375 -1.11125,-4.7625 0,-2.69875 1.0795,-4.73075 1.0795,-2.032 3.01625,-3.1115 1.9685,-1.11125 4.5085,-1.11125 2.4765,0 4.3815,1.0795 1.905,1.0795 2.921,2.9845 1.04775,1.87325 1.04775,4.2545 z m -2.9845,-0.60325 q 0,-1.651 -0.73025,-2.82575 -0.73025,-1.2065 -2.00025,-1.80975 -1.23825,-0.635 -2.76225,-0.635 -2.19075,0 -3.7465,1.397 -1.524,1.397 -1.74625,3.8735 z m 27.717721,-7.747 q 2.032,0 3.6195,0.85725 1.5875,0.8255 2.50825,2.50825 0.92075,1.68275 0.92075,4.09575 v 10.25525 h -2.8575 v -9.8425 q 0,-2.6035 -1.30175,-3.96875 -1.27,-1.397 -3.46075,-1.397 -2.25425,0 -3.58775,1.4605 -1.3335,1.42875 -1.3335,4.15925 v 9.5885 h -2.8575 v -9.8425 q 0,-2.6035 -1.30175,-3.96875 -1.27,-1.397 -3.46075,-1.397 -2.25425,0 -3.58775,1.4605 -1.3335,1.42875 -1.3335,4.15925 v 9.5885 h -2.88925 v -17.399 h 2.88925 v 2.50825 q 0.85725,-1.36525 2.286,-2.0955 1.4605,-0.73025 3.20675,-0.73025 2.19075,0 3.8735,0.98425 1.68275,0.98425 2.50825,2.88925 0.73025,-1.8415 2.413,-2.8575 1.68275,-1.016 3.7465,-1.016 z m 13.271452,-2.50825 q -0.8255,0 -1.397,-0.5715 -0.5715,-0.5715 -0.5715,-1.397 0,-0.8255 0.5715,-1.397 0.5715,-0.5715 1.397,-0.5715 0.79375,0 1.3335,0.5715 0.5715,0.5715 0.5715,1.397 0,0.8255 -0.5715,1.397 -0.53975,0.5715 -1.3335,0.5715 z m 1.397,2.82575 v 17.399 h -2.88925 v -17.399 z m 3.84171,8.66775 q 0,-2.69875 1.0795,-4.699 1.0795,-2.032 2.9845,-3.14325 1.93675,-1.11125 4.41325,-1.11125 3.20675,0 5.2705,1.55575 2.0955,1.55575 2.76225,4.318 h -3.1115 q -0.4445,-1.5875 -1.74625,-2.50825 -1.27,-0.92075 -3.175,-0.92075 -2.4765,0 -4.0005,1.7145 -1.524,1.68275 -1.524,4.79425 0,3.14325 1.524,4.85775 1.524,1.7145 4.0005,1.7145 1.905,0 3.175,-0.889 1.27,-0.889 1.74625,-2.54 h 3.1115 q -0.6985,2.667 -2.794,4.28625 -2.0955,1.5875 -5.23875,1.5875 -2.4765,0 -4.41325,-1.11125 -1.905,-1.11125 -2.9845,-3.14325 -1.0795,-2.032 -1.0795,-4.7625 z m 19.2722,-0.0317 q 0,-2.667 1.0795,-4.66725 1.0795,-2.032 2.95275,-3.14325 1.905,-1.11125 4.22275,-1.11125 2.286,0 3.96875,0.98425 1.68275,0.98425 2.50825,2.4765 v -3.175 h 2.921 v 17.399 h -2.921 v -3.2385 q -0.85725,1.524 -2.57175,2.54 -1.68275,0.98425 -3.937,0.98425 -2.31775,0 -4.191,-1.143 -1.87325,-1.143 -2.95275,-3.20675 -1.0795,-2.06375 -1.0795,-4.699 z m 14.732,0.0317 q 0,-1.9685 -0.79375,-3.429 -0.79375,-1.4605 -2.159,-2.2225 -1.3335,-0.79375 -2.95275,-0.79375 -1.61925,0 -2.95275,0.762 -1.3335,0.762 -2.12725,2.2225 -0.79375,1.4605 -0.79375,3.429 0,2.00025 0.79375,3.4925 0.79375,1.4605 2.12725,2.25425 1.3335,0.762 2.95275,0.762 1.61925,0 2.95275,-0.762 1.36525,-0.79375 2.159,-2.25425 0.79375,-1.49225 0.79375,-3.46075 z m 10.6997,-14.76375 v 23.495 h -2.88925 v -23.495 z"
         id="path8" /><path
         style="fill:#1a658f"
         d="m 29.441268,154.99821 v 21.971 h -2.88925 v -16.383 l -7.3025,16.383 h -2.032 L 9.8832678,160.55446 v 16.41475 h -2.88925 v -21.971 h 3.1115002 l 8.128,18.161 8.128,-18.161 z m 12.477691,22.25675 q -2.44475,0 -4.445,-1.11125 -1.9685,-1.11125 -3.1115,-3.14325 -1.11125,-2.06375 -1.11125,-4.7625 0,-2.667 1.143,-4.699 1.17475,-2.06375 3.175,-3.14325 2.00025,-1.11125 4.47675,-1.11125 2.4765,0 4.47675,1.11125 2.00025,1.0795 3.14325,3.1115 1.17475,2.032 1.17475,4.73075 0,2.69875 -1.2065,4.7625 -1.17475,2.032 -3.20675,3.14325 -2.032,1.11125 -4.5085,1.11125 z m 0,-2.54 q 1.55575,0 2.921,-0.73025 1.36525,-0.73025 2.19075,-2.19075 0.85725,-1.4605 0.85725,-3.556 0,-2.0955 -0.8255,-3.556 -0.8255,-1.4605 -2.159,-2.159 -1.3335,-0.73025 -2.88925,-0.73025 -1.5875,0 -2.921,0.73025 -1.30175,0.6985 -2.0955,2.159 -0.79375,1.4605 -0.79375,3.556 0,2.12725 0.762,3.58775 0.79375,1.4605 2.0955,2.19075 1.30175,0.6985 2.8575,0.6985 z m 11.652228,-6.50875 q 0,-2.667 1.0795,-4.66725 1.0795,-2.032 2.95275,-3.14325 1.905,-1.11125 4.2545,-1.11125 2.032,0 3.77825,0.9525 1.74625,0.92075 2.667,2.44475 v -9.2075 h 2.921 v 23.495 h -2.921 v -3.27025 q -0.85725,1.55575 -2.54,2.57175 -1.68275,0.98425 -3.937,0.98425 -2.31775,0 -4.22275,-1.143 -1.87325,-1.143 -2.95275,-3.20675 -1.0795,-2.06375 -1.0795,-4.699 z m 14.732,0.0317 q 0,-1.9685 -0.79375,-3.429 -0.79375,-1.4605 -2.159,-2.2225 -1.3335,-0.79375 -2.95275,-0.79375 -1.61925,0 -2.95275,0.762 -1.3335,0.762 -2.12725,2.2225 -0.79375,1.4605 -0.79375,3.429 0,2.00025 0.79375,3.4925 0.79375,1.4605 2.12725,2.25425 1.3335,0.762 2.95275,0.762 1.61925,0 2.95275,-0.762 1.36525,-0.79375 2.159,-2.25425 0.79375,-1.49225 0.79375,-3.46075 z m 23.24096,-8.66775 v 17.399 h -2.88925 v -2.57175 q -0.8255,1.3335 -2.31775,2.0955 -1.4605,0.73025 -3.2385,0.73025 -2.032,0 -3.65125,-0.8255 -1.61925,-0.85725 -2.57175,-2.54 -0.92075,-1.68275 -0.92075,-4.09575 v -10.19175 h 2.8575 v 9.81075 q 0,2.57175 1.30175,3.96875 1.30175,1.36525 3.556,1.36525 2.31775,0 3.65125,-1.42875 1.3335,-1.42875 1.3335,-4.15925 v -9.55675 z m 7.778734,-6.096 v 23.495 h -2.88925 v -23.495 z m 20.796199,14.12875 q 0,0.8255 -0.0952,1.74625 h -13.9065 q 0.15875,2.57175 1.74625,4.03225 1.61925,1.42875 3.90525,1.42875 1.87325,0 3.1115,-0.85725 1.27,-0.889 1.778,-2.3495 h 3.1115 q -0.6985,2.50825 -2.794,4.09575 -2.0955,1.55575 -5.207,1.55575 -2.4765,0 -4.445,-1.11125 -1.93675,-1.11125 -3.048,-3.14325 -1.11125,-2.06375 -1.11125,-4.7625 0,-2.69875 1.0795,-4.73075 1.0795,-2.032 3.01625,-3.1115 1.9685,-1.11125 4.5085,-1.11125 2.4765,0 4.3815,1.0795 1.905,1.0795 2.921,2.9845 1.04775,1.87325 1.04775,4.2545 z m -2.9845,-0.60325 q 0,-1.651 -0.73025,-2.82575 -0.73025,-1.2065 -2.00025,-1.80975 -1.23825,-0.635 -2.76225,-0.635 -2.19075,0 -3.7465,1.397 -1.524,1.397 -1.74625,3.8735 z"
         id="path9" /></g></g></svg>
