<?xml version="1.0" standalone="no"?>
<!DOCTYPE svg PUBLIC "-//W3C//DTD SVG 20010904//EN"
 "http://www.w3.org/TR/2001/REC-SVG-20010904/DTD/svg10.dtd">
<svg version="1.0" xmlns="http://www.w3.org/2000/svg"
 width="700.000000pt" height="700.000000pt" viewBox="0 0 700.000000 700.000000"
 preserveAspectRatio="xMidYMid meet">
<metadata>
Created by potrace 1.14, written by Peter Selinger 2001-2017
</metadata>
<g transform="translate(0.000000,700.000000) scale(0.100000,-0.100000)"
fill="#000000" stroke="none">
<path d="M4972 6980 c-358 -94 -567 -449 -471 -803 17 -64 67 -162 109 -215
l38 -49 -142 -354 -141 -354 -36 3 c-106 9 -253 -46 -344 -130 -165 -150 -204
-382 -100 -589 35 -69 135 -167 205 -201 194 -95 417 -61 565 87 30 30 64 73
75 95 25 48 36 53 16 8 -19 -47 -254 -573 -281 -633 -13 -27 -112 -248 -220
-490 -108 -242 -228 -510 -267 -596 l-70 -156 -58 -6 c-199 -21 -409 -96 -575
-206 -43 -28 -62 -36 -67 -27 -7 13 -218 482 -465 1036 -80 179 -153 343 -163
365 -61 134 -463 1034 -492 1100 -20 44 -47 105 -61 135 -14 30 -43 96 -65
145 -22 50 -54 122 -72 160 -17 39 -38 84 -45 100 -7 17 -31 71 -53 120 -22
50 -51 115 -65 145 -30 66 -61 134 -175 390 l-87 195 -391 1 -391 1 -1 -1566
c0 -861 -1 -1576 -1 -1587 -1 -18 -9 -22 -47 -28 -26 -3 -79 -16 -118 -27 -39
-12 -73 -21 -75 -21 -2 1 -46 126 -97 279 l-92 278 60 60 c169 167 247 344
254 570 2 81 -2 132 -17 195 -23 105 -101 264 -167 341 -87 102 -218 197 -326
238 l-51 19 -3 -175 c-2 -173 -2 -176 20 -191 13 -8 50 -42 83 -76 94 -95 137
-200 137 -331 -1 -151 -69 -294 -184 -383 l-58 -45 0 -249 0 -248 75 -224 75
-223 -75 -75 -75 -74 0 -681 0 -680 78 -75 c145 -139 281 -215 479 -269 40
-10 84 -19 98 -19 14 0 25 -6 26 -12 0 -7 1 -62 2 -123 l2 -110 360 0 360 0 2
140 c1 77 2 172 2 210 1 68 2 71 31 88 36 22 173 156 215 211 l30 39 100 -31
c55 -17 186 -57 290 -88 105 -31 233 -69 285 -84 248 -74 306 -90 321 -90 12
0 19 -18 28 -72 15 -90 69 -255 112 -340 166 -330 468 -582 814 -679 38 -11
84 -22 100 -24 17 -3 57 -9 90 -14 62 -10 318 -7 370 4 220 46 375 109 534
218 98 66 262 230 328 328 94 138 173 317 202 459 6 30 14 66 17 80 2 14 8 82
11 151 6 127 -3 221 -34 357 -14 62 -13 64 9 82 13 9 91 72 173 138 83 66 151
119 152 118 2 -2 3 -273 3 -603 l0 -601 363 2 362 1 2 700 c1 385 2 708 2 717
1 15 5 16 39 4 36 -13 98 -27 182 -42 47 -8 202 -8 268 1 29 3 83 14 120 23
l67 17 3 176 2 177 -60 -25 c-173 -69 -388 -64 -562 14 -32 14 -58 31 -59 37
-1 15 -1 1236 0 1257 1 17 86 60 156 78 162 42 326 34 468 -23 l57 -24 0 173
c0 127 -3 174 -12 177 -10 4 -10 13 0 44 10 30 12 148 10 493 l-3 453 -104
-278 c-57 -154 -112 -299 -122 -324 -10 -25 -41 -108 -69 -185 -29 -77 -55
-143 -58 -147 -4 -3 -36 -9 -72 -12 -59 -6 -203 -36 -240 -50 -13 -6 -15 94
-13 866 1 480 2 876 2 880 1 5 11 6 24 4 12 -3 33 -5 47 -5 40 -2 49 -13 69
-92 64 -250 245 -459 478 -554 l58 -24 3 172 3 172 -33 25 c-101 77 -166 170
-194 281 -16 61 -21 161 -11 204 33 140 94 239 189 306 l47 34 1 177 0 178
-52 -21 c-207 -80 -386 -264 -463 -474 -24 -67 -22 -66 -130 -51 -27 4 -68 9
-90 11 -22 2 -62 7 -90 11 -55 8 -55 8 -140 18 -33 4 -71 10 -85 12 -14 2 -46
6 -71 9 -53 6 -91 13 -94 17 -2 2 -6 35 -9 74 -23 262 -216 495 -471 569 -89
26 -243 28 -333 5z m267 -327 c75 -23 160 -106 189 -184 119 -320 -249 -581
-514 -364 -27 23 -55 60 -75 101 -62 126 -39 271 59 371 47 47 110 80 173 91
54 10 97 6 168 -15z m-249 -939 c41 -12 224 -14 264 -3 21 6 40 9 42 7 2 -2
-18 -53 -45 -113 -84 -192 -382 -857 -421 -941 -21 -45 -41 -91 -45 -103 -14
-45 -14 -13 0 39 40 145 7 297 -89 424 l-36 46 31 78 c17 42 35 86 40 97 4 11
25 61 44 110 20 50 42 104 50 120 7 17 32 81 56 143 47 122 40 116 109 96z
m-582 -861 c68 -51 86 -150 40 -221 -33 -49 -83 -74 -144 -71 -60 4 -103 32
-132 89 -45 89 -9 183 86 223 42 17 113 8 150 -20z m-2952 -98 c12 -27 52
-117 89 -200 37 -82 76 -170 87 -195 11 -25 31 -67 43 -95 13 -27 49 -108 80
-180 32 -71 75 -168 96 -213 22 -46 39 -85 39 -87 0 -2 13 -32 29 -67 16 -35
65 -144 109 -243 44 -99 91 -205 105 -235 14 -30 91 -203 172 -385 245 -549
356 -797 382 -855 14 -30 41 -90 59 -132 l34 -77 -29 -90 c-16 -49 -32 -106
-35 -127 -15 -97 -18 -105 -35 -100 -296 87 -838 250 -844 255 -4 4 2 47 12
95 15 69 19 119 17 230 -4 147 -5 157 -36 271 -32 119 -115 282 -187 367 -43
50 -154 160 -196 193 l-38 30 0 895 c0 492 1 929 1 970 1 82 -2 84 46 -25z
m4133 -1152 l0 -1238 -215 -170 c-117 -93 -227 -180 -242 -193 l-29 -22 -65
87 c-123 164 -282 302 -445 388 -29 15 -53 30 -53 35 0 4 16 43 36 86 20 43
49 107 65 142 16 35 29 65 29 67 0 3 53 121 80 180 11 22 481 1079 698 1568
75 169 138 307 139 307 2 0 3 -557 2 -1237z m-4905 -1568 c0 -393 -3 -717 -5
-719 -9 -9 -179 55 -239 90 -82 48 -205 170 -251 249 -79 135 -110 255 -104
403 2 53 6 104 8 112 2 8 7 29 11 45 59 236 240 430 479 515 29 10 63 19 77
19 l25 1 -1 -715z m793 305 c104 -219 86 -486 -45 -700 l-22 -35 0 425 c1 476
-3 460 67 310z m2264 -117 c-6 -10 -62 -132 -124 -271 l-114 -252 -76 170 -75
171 50 39 c72 58 171 111 263 142 44 15 81 25 83 23 2 -1 -1 -11 -7 -22z m727
-70 c381 -218 573 -666 467 -1088 -97 -384 -426 -678 -818 -731 -56 -8 -217
-8 -253 0 -16 3 -45 8 -64 11 -59 10 -142 36 -210 67 -265 119 -460 346 -541
628 -18 60 -22 86 -34 178 -5 46 7 40 29 -16 11 -26 36 -83 57 -127 20 -44 60
-134 89 -200 29 -66 57 -123 62 -126 6 -4 122 -6 258 -6 l248 0 12 26 c18 37
191 427 384 861 92 206 176 395 188 420 11 25 29 64 39 88 10 23 23 42 29 42
6 0 32 -12 58 -27z"/>
</g>
</svg>
