<?xml version="1.0" encoding="UTF-8" standalone="no"?>
<!-- Created with Inkscape (http://www.inkscape.org/) -->

<svg
   width="800"
   height="800"
   viewBox="0 0 211.66666 211.66667"
   version="1.1"
   id="svg1"
   xml:space="preserve"
   inkscape:version="1.3 (0e150ed, 2023-07-21)"
   sodipodi:docname="micm-4.svg"
   xmlns:inkscape="http://www.inkscape.org/namespaces/inkscape"
   xmlns:sodipodi="http://sodipodi.sourceforge.net/DTD/sodipodi-0.dtd"
   xmlns="http://www.w3.org/2000/svg"
   xmlns:svg="http://www.w3.org/2000/svg"><sodipodi:namedview
     id="namedview1"
     pagecolor="#ffffff"
     bordercolor="#000000"
     borderopacity="0.25"
     inkscape:showpageshadow="2"
     inkscape:pageopacity="0.0"
     inkscape:pagecheckerboard="0"
     inkscape:deskcolor="#d1d1d1"
     inkscape:document-units="mm"
     inkscape:zoom="0.51252607"
     inkscape:cx="413.6375"
     inkscape:cy="429.24646"
     inkscape:window-width="1312"
     inkscape:window-height="449"
     inkscape:window-x="0"
     inkscape:window-y="38"
     inkscape:window-maximized="0"
     inkscape:current-layer="svg1" /><defs
     id="defs1"><clipPath
       clipPathUnits="userSpaceOnUse"
       id="clipPath35"><rect
         style="fill:#c3d7ee;fill-opacity:1;stroke-width:0.185434"
         id="rect38"
         width="148.34749"
         height="148.34749"
         x="40.01712"
         y="31.865499" /></clipPath></defs><g
     inkscape:label="Layer 1"
     inkscape:groupmode="layer"
     id="layer1"
     style="display:inline"><g
       style="fill:#c3d7ee;fill-opacity:1"
       id="g7"
       transform="matrix(1.4268302,0,0,1.4268302,-57.097635,-45.466656)"
       clip-path="url(#clipPath35)"><g
         id="g2"
         style="fill:#c3d7ee;fill-opacity:1">&#10;	<g
   id="g1"
   style="fill:#c3d7ee;fill-opacity:1">&#10;		<path
   d="m 230.569,51.466 c 0,-11.351 -9.236,-20.587 -20.587,-20.587 -9.453,0 -17.356,6.442 -19.762,15.14 l -17.345,-2.287 c 0.005,-0.17 0.051,-0.329 0.051,-0.501 0,-9.083 -7.388,-16.469 -16.469,-16.469 -9.081,0 -16.469,7.386 -16.469,16.469 0,4.258 1.666,8.107 4.327,11.033 l -7.167,17.917 c -0.426,-0.044 -0.84,-0.129 -1.278,-0.129 -6.811,0 -12.352,5.541 -12.352,12.352 0,6.811 5.541,12.352 12.352,12.352 6.811,0 12.352,-5.541 12.352,-12.352 0,-3.398 -1.381,-6.478 -3.608,-8.713 l 6.751,-16.878 c 1.613,0.529 3.304,0.887 5.091,0.887 5.964,0 11.149,-3.217 14.039,-7.977 l 19.181,2.528 c 1.117,8.136 6.953,14.712 14.691,16.924 l -9.608,25.622 c -14.379,0.434 -25.951,12.239 -25.951,26.721 0,5.877 1.927,11.301 5.152,15.721 l -18.205,14.564 c -5.786,-9.498 -16.209,-15.874 -28.12,-15.874 -16.734,0 -30.562,12.554 -32.639,28.732 l -22.038,-6.578 c 0.743,-2.454 1.152,-5.051 1.152,-7.743 0,-14.756 -12.006,-26.762 -26.762,-26.762 -3.342,0 -6.529,0.643 -9.481,1.767 l -4.782,-14.346 c 4.882,-3.767 8.087,-9.612 8.087,-16.242 C 41.172,85.406 31.936,76.17 20.585,76.17 9.234,76.17 0,85.406 0,96.757 c 0,11.351 9.236,20.587 20.587,20.587 1.746,0 3.414,-0.285 5.035,-0.696 l 4.956,14.869 c -6.085,4.91 -9.991,12.416 -9.991,20.825 0,14.756 12.006,26.762 26.762,26.762 9.091,0 17.126,-4.566 21.965,-11.516 l 24.206,7.225 c 0.394,0.117 0.79,0.173 1.18,0.173 0.095,0 0.183,-0.038 0.277,-0.045 2.016,16.244 15.879,28.866 32.659,28.866 18.162,0 32.938,-14.777 32.938,-32.938 0,-3.227 -0.487,-6.338 -1.355,-9.287 l 20.396,-16.317 c 0.068,-0.054 0.096,-0.133 0.16,-0.191 4.434,3.258 9.885,5.208 15.797,5.208 14.756,0 26.762,-12.006 26.762,-26.762 0,-12.121 -8.107,-22.371 -19.178,-25.651 l 9.793,-26.115 c 9.939,-1.454 17.62,-9.953 17.62,-20.288 z m -94.698,37.056 c -2.27,0 -4.117,-1.845 -4.117,-4.117 0,-2.272 1.847,-4.117 4.117,-4.117 2.27,0 4.117,1.845 4.117,4.117 0,2.272 -1.847,4.117 -4.117,4.117 z m 20.587,-37.056 c -4.541,0 -8.235,-3.695 -8.235,-8.235 0,-4.54 3.693,-8.235 8.235,-8.235 4.541,0 8.235,3.695 8.235,8.235 0,4.54 -3.694,8.235 -8.235,8.235 z M 20.587,109.109 c -6.811,0 -12.352,-5.541 -12.352,-12.352 0,-6.811 5.541,-12.352 12.352,-12.352 6.811,0 12.352,5.541 12.352,12.352 0,6.811 -5.541,12.352 -12.352,12.352 z m 26.762,61.759 c -10.217,0 -18.528,-8.311 -18.528,-18.528 0,-10.217 8.311,-18.528 18.528,-18.528 10.217,0 18.528,8.311 18.528,18.528 0,10.217 -8.311,18.528 -18.528,18.528 z m 80.287,24.704 c -13.623,0 -24.704,-11.081 -24.704,-24.704 0,-13.623 11.081,-24.704 24.704,-24.704 13.623,0 24.704,11.081 24.704,24.704 0,13.623 -11.081,24.704 -24.704,24.704 z M 214.1,123.519 c 0,10.217 -8.311,18.528 -18.528,18.528 -10.217,0 -18.528,-8.311 -18.528,-18.528 0,-10.217 8.311,-18.528 18.528,-18.528 10.217,0 18.528,8.311 18.528,18.528 z M 197.631,51.466 c 0,-6.811 5.541,-12.352 12.352,-12.352 6.811,0 12.352,5.541 12.352,12.352 0,6.811 -5.541,12.352 -12.352,12.352 -6.812,0 -12.352,-5.54 -12.352,-12.352 z"
   id="path1"
   style="fill:#c3d7ee;fill-opacity:1" />&#10;	</g>&#10;</g></g></g><g
     style="display:none;fill:#808080;fill-opacity:0.21729"
     id="g8"
     transform="scale(0.42674731)"><g
       id="g44"
       style="fill:#808080;fill-opacity:0.21729">&#10;	<g
   id="g43"
   style="fill:#808080;fill-opacity:0.21729">&#10;		<g
   id="g42"
   style="fill:#808080;fill-opacity:0.21729">&#10;			<rect
   x="144"
   y="104"
   width="16"
   height="24"
   id="rect1"
   style="fill:#808080;fill-opacity:0.21729" />&#10;			<rect
   x="176"
   y="104"
   width="16"
   height="24"
   id="rect2"
   style="fill:#808080;fill-opacity:0.21729" />&#10;			<rect
   x="208"
   y="104"
   width="16"
   height="24"
   id="rect3"
   style="fill:#808080;fill-opacity:0.21729" />&#10;			<rect
   x="240"
   y="104"
   width="16"
   height="24"
   id="rect4"
   style="fill:#808080;fill-opacity:0.21729" />&#10;			<rect
   x="272"
   y="104"
   width="16"
   height="24"
   id="rect5"
   style="fill:#808080;fill-opacity:0.21729" />&#10;			<rect
   x="304"
   y="104"
   width="16"
   height="24"
   id="rect6"
   style="fill:#808080;fill-opacity:0.21729" />&#10;			<rect
   x="336"
   y="104"
   width="16"
   height="24"
   id="rect7"
   style="fill:#808080;fill-opacity:0.21729" />&#10;			<rect
   x="144"
   y="368"
   width="16"
   height="24"
   id="rect8"
   style="fill:#808080;fill-opacity:0.21729" />&#10;			<rect
   x="176"
   y="368"
   width="16"
   height="24"
   id="rect9"
   style="fill:#808080;fill-opacity:0.21729" />&#10;			<rect
   x="208"
   y="368"
   width="16"
   height="24"
   id="rect10"
   style="fill:#808080;fill-opacity:0.21729" />&#10;			<rect
   x="240"
   y="368"
   width="16"
   height="24"
   id="rect11"
   style="fill:#808080;fill-opacity:0.21729" />&#10;			<rect
   x="272"
   y="368"
   width="16"
   height="24"
   id="rect12"
   style="fill:#808080;fill-opacity:0.21729" />&#10;			<rect
   x="304"
   y="368"
   width="16"
   height="24"
   id="rect13"
   style="fill:#808080;fill-opacity:0.21729" />&#10;			<rect
   x="336"
   y="368"
   width="16"
   height="24"
   id="rect14"
   style="fill:#808080;fill-opacity:0.21729" />&#10;			<rect
   x="368"
   y="144"
   width="24"
   height="16"
   id="rect15"
   style="fill:#808080;fill-opacity:0.21729" />&#10;			<rect
   x="368"
   y="176"
   width="24"
   height="16"
   id="rect16"
   style="fill:#808080;fill-opacity:0.21729" />&#10;			<rect
   x="368"
   y="208"
   width="24"
   height="16"
   id="rect17"
   style="fill:#808080;fill-opacity:0.21729" />&#10;			<rect
   x="368"
   y="240"
   width="24"
   height="16"
   id="rect18"
   style="fill:#808080;fill-opacity:0.21729" />&#10;			<rect
   x="368"
   y="272"
   width="24"
   height="16"
   id="rect19"
   style="fill:#808080;fill-opacity:0.21729" />&#10;			<rect
   x="368"
   y="304"
   width="24"
   height="16"
   id="rect20"
   style="fill:#808080;fill-opacity:0.21729" />&#10;			<rect
   x="368"
   y="336"
   width="24"
   height="16"
   id="rect21"
   style="fill:#808080;fill-opacity:0.21729" />&#10;			<rect
   x="104"
   y="144"
   width="24"
   height="16"
   id="rect22"
   style="fill:#808080;fill-opacity:0.21729" />&#10;			<rect
   x="104"
   y="176"
   width="24"
   height="16"
   id="rect23"
   style="fill:#808080;fill-opacity:0.21729" />&#10;			<rect
   x="104"
   y="208"
   width="24"
   height="16"
   id="rect24"
   style="fill:#808080;fill-opacity:0.21729" />&#10;			<rect
   x="104"
   y="240"
   width="24"
   height="16"
   id="rect25"
   style="fill:#808080;fill-opacity:0.21729" />&#10;			<rect
   x="104"
   y="272"
   width="24"
   height="16"
   id="rect26"
   style="fill:#808080;fill-opacity:0.21729" />&#10;			<rect
   x="104"
   y="304"
   width="24"
   height="16"
   id="rect27"
   style="fill:#808080;fill-opacity:0.21729" />&#10;			<rect
   x="104"
   y="336"
   width="24"
   height="16"
   id="rect28"
   style="fill:#808080;fill-opacity:0.21729" />&#10;			<path
   d="M 456,46.528 V 131.72 L 437.576,144 H 408 v 16 h 34.424 L 472,140.28 V 46.528 C 481.288,43.216 488,34.416 488,24 488,10.768 477.232,0 464,0 c -13.232,0 -24,10.768 -24,24 0,10.416 6.704,19.216 16,22.528 z M 464,16 c 4.416,0 8,3.584 8,8 0,4.416 -3.584,8 -8,8 -4.416,0 -8,-3.584 -8,-8 0,-4.416 3.584,-8 8,-8 z"
   id="path28"
   style="fill:#808080;fill-opacity:0.21729" />&#10;			<rect
   x="408"
   y="176"
   width="88"
   height="16"
   id="rect29"
   style="fill:#808080;fill-opacity:0.21729" />&#10;			<rect
   x="408"
   y="208"
   width="88"
   height="16"
   id="rect30"
   style="fill:#808080;fill-opacity:0.21729" />&#10;			<polygon
   points="467.72,280 496,280 496,264 476.28,264 460.28,240 408,240 408,256 451.72,256 "
   id="polygon30"
   style="fill:#808080;fill-opacity:0.21729" />&#10;			<rect
   x="408"
   y="272"
   width="32"
   height="16"
   id="rect31"
   style="fill:#808080;fill-opacity:0.21729" />&#10;			<rect
   x="408"
   y="304"
   width="88"
   height="16"
   id="rect32"
   style="fill:#808080;fill-opacity:0.21729" />&#10;			<path
   d="M 435.312,336 H 408 v 16 h 20.688 L 448,371.312 v 14.16 c -9.296,3.312 -16,12.112 -16,22.528 0,13.232 10.768,24 24,24 13.232,0 24,-10.768 24,-24 0,-10.416 -6.712,-19.216 -16,-22.528 V 364.688 Z M 456,416 c -4.416,0 -8,-3.584 -8,-8 0,-4.416 3.584,-8 8,-8 4.416,0 8,3.584 8,8 0,4.416 -3.584,8 -8,8 z"
   id="path32"
   style="fill:#808080;fill-opacity:0.21729" />&#10;			<polygon
   points="364.688,464 496,464 496,448 371.312,448 352,428.688 352,408 336,408 336,435.312 "
   id="polygon32"
   style="fill:#808080;fill-opacity:0.21729" />&#10;			<polygon
   points="332.688,496 496,496 496,480 339.312,480 320,460.688 320,408 304,408 304,467.312 "
   id="polygon33"
   style="fill:#808080;fill-opacity:0.21729" />&#10;			<rect
   x="272"
   y="408"
   width="16"
   height="88"
   id="rect33"
   style="fill:#808080;fill-opacity:0.21729" />&#10;			<polygon
   points="208,432 256,432 256,408 240,408 240,416 224,416 224,408 208,408 "
   id="polygon34"
   style="fill:#808080;fill-opacity:0.21729" />&#10;			<path
   d="m 232,448 c -9.904,0 -18.416,6.032 -22.08,14.608 L 192,444.688 V 408 h -16 v 43.312 L 204.688,480 h 4.784 c 3.312,9.288 12.112,16 22.528,16 13.232,0 24,-10.768 24,-24 0,-13.232 -10.768,-24 -24,-24 z m 0,32 c -4.416,0 -8,-3.584 -8,-8 0,-4.416 3.584,-8 8,-8 4.416,0 8,3.584 8,8 0,4.416 -3.584,8 -8,8 z"
   id="path34"
   style="fill:#808080;fill-opacity:0.21729" />&#10;			<path
   d="M 144,444.688 124.688,464 H 46.528 C 44.112,457.224 38.776,451.888 32,449.472 V 339.312 L 51.312,320 H 88 V 304 H 44.688 L 16,332.688 V 449.472 C 6.704,452.784 0,461.584 0,472 c 0,13.232 10.768,24 24,24 10.416,0 19.216,-6.712 22.528,-16 h 84.784 L 160,451.312 V 408 H 144 Z M 24,480 c -4.416,0 -8,-3.584 -8,-8 0,-4.416 3.584,-8 8,-8 4.416,0 8,3.584 8,8 0,4.416 -3.584,8 -8,8 z"
   id="path35"
   style="fill:#808080;fill-opacity:0.21729" />&#10;			<path
   d="M 83.312,352 H 88 V 336 H 76.688 L 48,364.688 v 22.624 L 76.688,416 h 4.784 c 3.312,9.288 12.112,16 22.528,16 13.232,0 24,-10.768 24,-24 0,-13.232 -10.768,-24 -24,-24 -9.904,0 -18.416,6.032 -22.08,14.608 L 64,380.688 v -9.376 z M 104,400 c 4.416,0 8,3.584 8,8 0,4.416 -3.584,8 -8,8 -4.416,0 -8,-3.584 -8,-8 0,-4.416 3.584,-8 8,-8 z"
   id="path36"
   style="fill:#808080;fill-opacity:0.21729" />&#10;			<rect
   y="272"
   width="88"
   height="16"
   id="rect36"
   x="0"
   style="fill:#808080;fill-opacity:0.21729" />&#10;			<path
   d="M 16,46.528 V 227.312 L 44.688,256 H 88 V 240 H 51.312 L 32,220.688 V 179.312 L 44.688,192 H 88 V 176 H 51.312 L 32,156.688 V 46.528 C 41.288,43.216 48,34.416 48,24 48,10.768 37.232,0 24,0 10.768,0 0,10.768 0,24 0,34.416 6.704,43.216 16,46.528 Z M 24,16 c 4.416,0 8,3.584 8,8 0,4.416 -3.584,8 -8,8 -4.416,0 -8,-3.584 -8,-8 0,-4.416 3.584,-8 8,-8 z"
   id="path37"
   style="fill:#808080;fill-opacity:0.21729" />&#10;			<rect
   x="56"
   y="208"
   width="32"
   height="16"
   id="rect37"
   style="fill:#808080;fill-opacity:0.21729" />&#10;			<path
   d="M 48,131.312 76.688,160 H 88 V 144 H 83.312 L 64,124.688 V 51.312 L 83.312,32 H 176 v 56 h 16 V 32 h 16 v 56 h 16 V 32 h 16 v 56 h 16 V 64 l 16,12 v 12 h 16 V 68 L 256,44 V 32 h 9.472 c 3.312,9.288 12.112,16 22.528,16 13.232,0 24,-10.768 24,-24 C 312,10.768 301.232,0 288,0 277.584,0 268.784,6.712 265.472,16 H 76.688 L 48,44.688 Z M 288,16 c 4.416,0 8,3.584 8,8 0,4.416 -3.584,8 -8,8 -4.416,0 -8,-3.584 -8,-8 0,-4.416 3.584,-8 8,-8 z"
   id="path38"
   style="fill:#808080;fill-opacity:0.21729" />&#10;			<path
   d="M 160,64 H 126.528 C 123.216,54.712 114.416,48 104,48 90.768,48 80,58.768 80,72 c 0,13.232 10.768,24 24,24 10.416,0 19.216,-6.712 22.528,-16 H 144 v 8 h 16 z m -56,16 c -4.416,0 -8,-3.584 -8,-8 0,-4.416 3.584,-8 8,-8 4.416,0 8,3.584 8,8 0,4.416 -3.584,8 -8,8 z"
   id="path39"
   style="fill:#808080;fill-opacity:0.21729" />&#10;			<path
   d="m 336,88 h 16 v -8 h 41.472 c 3.312,9.288 12.112,16 22.528,16 13.232,0 24,-10.768 24,-24 0,-13.232 -10.768,-24 -24,-24 -10.416,0 -19.216,6.712 -22.528,16 H 336 Z m 80,-24 c 4.416,0 8,3.584 8,8 0,4.416 -3.584,8 -8,8 -4.416,0 -8,-3.584 -8,-8 0,-4.416 3.584,-8 8,-8 z"
   id="path40"
   style="fill:#808080;fill-opacity:0.21729" />&#10;			<polygon
   points="344,0 328,0 328,36.688 304,60.688 304,88 320,88 320,67.312 344,43.312 "
   id="polygon40"
   style="fill:#808080;fill-opacity:0.21729" />&#10;			<path
   d="m 272,272 c 26.472,0 48,-21.528 48,-48 0,-26.472 -21.528,-48 -48,-48 -26.472,0 -48,21.528 -48,48 0,26.472 21.528,48 48,48 z m 0,-80 c 17.648,0 32,14.352 32,32 0,17.648 -14.352,32 -32,32 -17.648,0 -32,-14.352 -32,-32 0,-17.648 14.352,-32 32,-32 z"
   id="path41"
   style="fill:#808080;fill-opacity:0.21729" />&#10;			<path
   d="m 241.416,297.896 c 9.432,3.92 19.752,6.104 30.584,6.104 44.112,0 80,-35.888 80,-80 0,-44.112 -35.888,-80 -80,-80 -44.112,0 -80,35.888 -80,80 0,10.832 2.184,21.152 6.104,30.584 l -45.136,45.136 c -5.784,5.784 -8.968,13.472 -8.968,21.656 0,16.88 13.744,30.624 30.624,30.624 8.184,0 15.872,-3.184 21.656,-8.968 z M 272,160 c 35.288,0 64,28.712 64,64 0,35.288 -28.712,64 -64,64 -35.288,0 -64,-28.712 -64,-64 0,-35.288 28.712,-64 64,-64 z M 174.624,336 C 166.56,336 160,329.44 160,321.376 c 0,-3.856 1.56,-7.624 4.28,-10.344 l 41.8,-41.8 c 5.576,8.096 12.592,15.112 20.688,20.688 l -41.8,41.8 c -2.72,2.72 -6.488,4.28 -10.344,4.28 z"
   id="path42"
   style="fill:#808080;fill-opacity:0.21729" />&#10;		</g>&#10;	</g>&#10;</g></g><path
     style="font-size:78.5407px;font-family:Poppins;-inkscape-font-specification:Poppins;fill:#1a658f;stroke-width:0.237979"
     d="m 59.808646,78.97242 v 54.35017 H 52.661442 V 92.795583 L 34.59708,133.32259 H 29.570475 L 11.427573,92.717043 V 133.32259 H 4.2803689 V 78.97242 h 7.6969891 l 20.10642,44.92528 20.10642,-44.92528 z M 79.050971,78.579716 V 133.32259 H 71.903767 V 78.579716 Z m 9.503297,27.332164 q 0,-8.011151 3.612872,-14.372948 3.612872,-6.440337 9.81759,-10.05321 6.28325,-3.612872 13.9017,-3.612872 8.95364,0 15.6296,4.319739 6.67596,4.319738 9.73905,12.252349 h -8.56094 q -2.27768,-4.948064 -6.59742,-7.618448 -4.24119,-2.670384 -10.21029,-2.670384 -5.73347,0 -10.28883,2.670384 -4.55536,2.670384 -7.147204,7.618448 -2.591843,4.869524 -2.591843,11.466942 0,6.51888 2.591843,11.46694 2.591844,4.86953 7.147204,7.53991 4.55536,2.67038 10.28883,2.67038 5.9691,0 10.21029,-2.59184 4.31974,-2.67038 6.59742,-7.61845 h 8.56094 q -3.06309,7.85407 -9.73905,12.17381 -6.67596,4.2412 -15.6296,4.2412 -7.61845,0 -13.9017,-3.53433 -6.204718,-3.61287 -9.81759,-9.97467 -3.612872,-6.3618 -3.612872,-14.37295 z M 207.3863,78.97242 v 54.35017 h -7.14721 V 92.795583 l -18.06436,40.527007 h -5.0266 L 159.00522,92.717043 v 40.605547 h -7.1472 V 78.97242 h 7.69699 l 20.10642,44.92528 20.10642,-44.92528 z"
     id="text1"
     aria-label="MICM" /></svg>
