<?xml version="1.0" encoding="iso-8859-1"?>
<!-- Uploaded to: SVG Repo, www.svgrepo.com, Generator: SVG Repo Mixer Tools -->
<svg height="800px" width="800px" version="1.1" id="Layer_1" xmlns="http://www.w3.org/2000/svg" xmlns:xlink="http://www.w3.org/1999/xlink" 
	 viewBox="0 0 500 500" xml:space="preserve">
<g>
	<path style="fill:#676767;" d="M56,96v308c0,20.8,19.2,40,40,40h308c20.8,0,36-19.2,36-40V98c0-22-16-38-38-38H96
		C75.2,60,56,75.2,56,96z"/>
	<path style="fill:#676767;" d="M405.2,80H98.4C88.4,80,76,84,76,94v308c0,9.6,12.4,22,22.4,22h308c10,0,13.6-12.4,13.6-22V94
		C420,84.4,415.2,80,405.2,80z"/>
</g>
<path d="M402,450H94c-24.4,0-44-19.6-44-44V98c0-24.4,19.6-44,44-44h308c24.4,0,44,19.6,44,44v308C446,430.4,426.4,450,402,450z
	 M94,62c-20,0-36,16-36,36v308c0,20,16,36,36,36h308c20,0,36-16,36-36V98c0-20-16-36-36-36H94z"/>
<path d="M230,60c-2.4,0-4-1.6-4-4V4c0-2.4,1.6-4,4-4s4,1.6,4,4v52C234,58.4,232.4,60,230,60z"/>
<path d="M190,60c-2.4,0-4-1.6-4-4V4c0-2.4,1.6-4,4-4s4,1.6,4,4v52C194,58.4,192.4,60,190,60z"/>
<path d="M150,60c-2.4,0-4-1.6-4-4V4c0-2.4,1.6-4,4-4s4,1.6,4,4v52C154,58.4,152.4,60,150,60z"/>
<path d="M110,60c-2.4,0-4-1.6-4-4V4c0-2.4,1.6-4,4-4s4,1.6,4,4v52C114,58.4,112.4,60,110,60z"/>
<path d="M390,60c-2.4,0-4-1.6-4-4V4c0-2.4,1.6-4,4-4s4,1.6,4,4v52C394,58.4,392.4,60,390,60z"/>
<path d="M350,60c-2.4,0-4-1.6-4-4V4c0-2.4,1.6-4,4-4s4,1.6,4,4v52C354,58.4,352.4,60,350,60z"/>
<path d="M310,60c-2.4,0-4-1.6-4-4V4c0-2.4,1.6-4,4-4s4,1.6,4,4v52C314,58.4,312.4,60,310,60z"/>
<path d="M270,60c-2.4,0-4-1.6-4-4V4c0-2.4,1.6-4,4-4s4,1.6,4,4v52C274,58.4,272.4,60,270,60z"/>
<path d="M230,500c-2.4,0-4-1.6-4-4v-48c0-2.4,1.6-4,4-4s4,1.6,4,4v48C234,498.4,232.4,500,230,500z"/>
<path d="M190,500c-2.4,0-4-1.6-4-4v-48c0-2.4,1.6-4,4-4s4,1.6,4,4v48C194,498.4,192.4,500,190,500z"/>
<path d="M150,500c-2.4,0-4-1.6-4-4v-48c0-2.4,1.6-4,4-4s4,1.6,4,4v48C154,498.4,152.4,500,150,500z"/>
<path d="M110,500c-2.4,0-4-1.6-4-4v-48c0-2.4,1.6-4,4-4s4,1.6,4,4v48C114,498.4,112.4,500,110,500z"/>
<path d="M390,500c-2.4,0-4-1.6-4-4v-48c0-2.4,1.6-4,4-4s4,1.6,4,4v48C394,498.4,392.4,500,390,500z"/>
<path d="M350,500c-2.4,0-4-1.6-4-4v-48c0-2.4,1.6-4,4-4s4,1.6,4,4v48C354,498.4,352.4,500,350,500z"/>
<path d="M310,500c-2.4,0-4-1.6-4-4v-48c0-2.4,1.6-4,4-4s4,1.6,4,4v48C314,498.4,312.4,500,310,500z"/>
<path d="M270,500c-2.4,0-4-1.6-4-4v-48c0-2.4,1.6-4,4-4s4,1.6,4,4v48C274,498.4,272.4,500,270,500z"/>
<path d="M52,278H4c-2.4,0-4-1.6-4-4s1.6-4,4-4h48c2.4,0,4,1.6,4,4S54.4,278,52,278z"/>
<path d="M52,318H4c-2.4,0-4-1.6-4-4s1.6-4,4-4h48c2.4,0,4,1.6,4,4S54.4,318,52,318z"/>
<path d="M52,358H4c-2.4,0-4-1.6-4-4s1.6-4,4-4h48c2.4,0,4,1.6,4,4S54.4,358,52,358z"/>
<path d="M52,398H4c-2.4,0-4-1.6-4-4s1.6-4,4-4h48c2.4,0,4,1.6,4,4S54.4,398,52,398z"/>
<path d="M52,118H4c-2.4,0-4-1.6-4-4s1.6-4,4-4h48c2.4,0,4,1.6,4,4S54.4,118,52,118z"/>
<path d="M52,158H4c-2.4,0-4-1.6-4-4s1.6-4,4-4h48c2.4,0,4,1.6,4,4S54.4,158,52,158z"/>
<path d="M52,198H4c-2.4,0-4-1.6-4-4s1.6-4,4-4h48c2.4,0,4,1.6,4,4S54.4,198,52,198z"/>
<path d="M52,238H4c-2.4,0-4-1.6-4-4s1.6-4,4-4h48c2.4,0,4,1.6,4,4S54.4,238,52,238z"/>
<path d="M496,278h-52c-2.4,0-4-1.6-4-4s1.6-4,4-4h52c2.4,0,4,1.6,4,4S498.4,278,496,278z"/>
<path d="M496,318h-52c-2.4,0-4-1.6-4-4s1.6-4,4-4h52c2.4,0,4,1.6,4,4S498.4,318,496,318z"/>
<path d="M496,358h-52c-2.4,0-4-1.6-4-4s1.6-4,4-4h52c2.4,0,4,1.6,4,4S498.4,358,496,358z"/>
<path d="M496,398h-52c-2.4,0-4-1.6-4-4s1.6-4,4-4h52c2.4,0,4,1.6,4,4S498.4,398,496,398z"/>
<path d="M496,118h-52c-2.4,0-4-1.6-4-4s1.6-4,4-4h52c2.4,0,4,1.6,4,4S498.4,118,496,118z"/>
<path d="M496,158h-52c-2.4,0-4-1.6-4-4s1.6-4,4-4h52c2.4,0,4,1.6,4,4S498.4,158,496,158z"/>
<path d="M496,198h-52c-2.4,0-4-1.6-4-4s1.6-4,4-4h52c2.4,0,4,1.6,4,4S498.4,198,496,198z"/>
<path d="M496,238h-52c-2.4,0-4-1.6-4-4s1.6-4,4-4h52c2.4,0,4,1.6,4,4S498.4,238,496,238z"/>
<path d="M406.4,430h-308C85.2,430,70,414.8,70,402V94c0-13.2,14.4-20,28.4-20H368c2.4,0,4,1.6,4,4s-1.6,4-4,4H98.4
	c-8,0-20.4,3.2-20.4,12v308c0,8.8,11.2,20,20.4,20h308c8.4,0,11.6-12,11.6-20V94c0-8.4-6-14-14.8-14c-2.4,0-4-1.6-4-4s1.6-4,4-4
	c13.6,0,22.8,9.2,22.8,22v308C426,415.2,420,430,406.4,430z"/>
</svg>