<?xml version="1.0" encoding="UTF-8" standalone="no"?>
<!-- Created with Inkscape (http://www.inkscape.org/) -->

<svg
   width="800"
   height="800"
   viewBox="0 0 211.66666 211.66667"
   version="1.1"
   id="svg1"
   xml:space="preserve"
   inkscape:version="1.3 (0e150ed, 2023-07-21)"
   sodipodi:docname="micm-3.svg"
   xmlns:inkscape="http://www.inkscape.org/namespaces/inkscape"
   xmlns:sodipodi="http://sodipodi.sourceforge.net/DTD/sodipodi-0.dtd"
   xmlns="http://www.w3.org/2000/svg"
   xmlns:svg="http://www.w3.org/2000/svg"><sodipodi:namedview
     id="namedview1"
     pagecolor="#ffffff"
     bordercolor="#000000"
     borderopacity="0.25"
     inkscape:showpageshadow="2"
     inkscape:pageopacity="0.0"
     inkscape:pagecheckerboard="0"
     inkscape:deskcolor="#d1d1d1"
     inkscape:document-units="mm"
     inkscape:zoom="0.51252607"
     inkscape:cx="413.6375"
     inkscape:cy="429.24646"
     inkscape:window-width="1312"
     inkscape:window-height="449"
     inkscape:window-x="0"
     inkscape:window-y="38"
     inkscape:window-maximized="0"
     inkscape:current-layer="layer1" /><defs
     id="defs1" /><g
     inkscape:label="Layer 1"
     inkscape:groupmode="layer"
     id="layer1"><g
       style="fill:#c3d7ee;fill-opacity:1"
       id="g1"
       transform="matrix(0.19767765,0,0,0.22676414,56.809276,5.678573)"><g
         id="g7"
         style="fill:#c3d7ee;fill-opacity:1">&#10;	<g
   id="g6"
   style="fill:#c3d7ee;fill-opacity:1">&#10;		<g
   id="g5"
   style="fill:#c3d7ee;fill-opacity:1">&#10;			<path
   d="m 440,384 c -17.112,0 -32.84,7.608 -43.416,20.68 -4,-1.92 -8.232,-3.264 -12.592,-4.008 C 384,400.448 384,400.224 384,400 384,386.464 379.688,373.336 371.744,362.432 379.784,349.68 384,335.136 384,320 c 0,-38.536 -27.8,-71.336 -64.832,-78.48 0.032,-0.184 0.016,-0.368 0.048,-0.552 0.472,-2.928 0.784,-5.912 0.784,-8.968 0,-2.024 -0.12,-4.024 -0.328,-5.992 -0.04,-0.336 -0.112,-0.672 -0.152,-1.016 -0.208,-1.672 -0.472,-3.328 -0.832,-4.96 -0.016,-0.064 -0.016,-0.136 -0.032,-0.2 C 343.368,210.568 360,187.04 360,160 360,141.96 352.576,125.176 339.448,113.08 342.472,105.008 344,96.6 344,88 344,48.296 311.704,16 272,16 260.04,16 248.344,18.976 237.848,24.656 225.464,16.784 210.216,14.112 195.728,17.368 183.904,6.272 168.224,0 152,0 116.712,0 88,28.712 88,64 c 0,14.728 5.176,28.76 14.184,40 H 88 v 16 h 16 V 261.816 L 6.352,427.064 C 2.192,434.104 0,442.144 0,450.304 0,475.504 20.504,496 45.696,496 h 228.608 c 20.496,0 37.88,-13.56 43.656,-32.184 0.688,0.024 1.36,0.144 2.04,0.144 V 464 c 0.128,0 0.248,-0.016 0.376,-0.016 0.232,0 0.464,-0.024 0.696,-0.032 3,-0.048 5.944,-0.328 8.832,-0.768 0.232,-0.04 0.48,-0.024 0.712,-0.064 6.408,19.24 24.608,32.88 45.384,32.88 11.168,0 21.912,-3.984 30.488,-11.128 9.632,7.224 21.28,11.128 33.512,11.128 30.872,0 56,-25.128 56,-56 0,-30.872 -25.128,-56 -56,-56 z M 120,266.184 V 120 h 80 v 136.64 c -27.088,3.904 -48,27.208 -48,55.36 0,2.72 0.264,5.376 0.64,8 H 88.2 Z M 274.304,480 H 192 45.696 C 29.32,480 16,466.68 16,450.304 16,445 17.432,439.776 20.136,435.192 L 78.744,336 h 78.736 c 9.008,18.888 28.24,32 50.52,32 0.264,0 0.528,0 0.808,-0.008 C 212.512,386.232 228.68,400 248,400 c 9.736,0 18.544,-3.632 25.488,-9.432 l 26.376,44.624 C 302.568,439.776 304,445 304,450.304 304,466.68 290.68,480 274.304,480 Z m 55.256,-32.992 c -0.256,0.048 -0.512,0.12 -0.768,0.168 -2.528,0.464 -5.144,0.672 -7.792,0.728 -0.384,0.008 -0.768,0.024 -1.152,0.024 -0.384,-7.336 -2.44,-14.512 -6.192,-20.872 L 284.064,377 C 286.52,371.824 288,366.104 288,360 h -16 c 0,13.232 -10.768,24 -24,24 -13.232,0 -24,-10.768 -24.048,-23.216 l 0.12,-11.016 -9.36,1.616 C 212.304,351.8 210.112,352 208,352 c -22.056,0 -40,-17.944 -40,-40 0,-22.056 17.944,-40 40,-40 22.056,0 40,17.944 40,40 h 16 c 0,-28.152 -20.912,-51.456 -48,-55.36 V 120 h 16 V 104 H 216 201.824 C 210.832,92.8 216,78.816 216,64 h -16 c 0,16.144 -8.04,31.064 -21.488,40 h -54.36 l 0.416,-0.6 C 111.688,94.408 104,79.68 104,64 c 0,-26.472 21.528,-48 48,-48 13.4,0 26.312,5.72 35.424,15.696 l 3.464,3.8 4.888,-1.568 c 12.568,-4.024 26.392,-1.552 36.776,6.544 l 1.168,0.912 C 242.792,49.016 248,60.152 248,72 h 16 c 0,-13.224 -4.688,-25.784 -13,-35.76 6.664,-2.72 13.752,-4.24 21,-4.24 30.872,0 56,25.128 56,56 0,8.28 -1.832,16.344 -5.456,23.976 l -0.088,0.192 C 313.168,131.52 293.52,144 272,144 v 16 c 24.16,0 46.472,-12.248 59.712,-31.904 7.856,8.72 12.288,19.928 12.288,31.904 0,20.288 -12.552,37.832 -31.112,44.768 C 303.304,187.632 284.992,176 264,176 v 16 c 16.488,0 30.672,10.04 36.784,24.32 l 0.136,0.352 c 0.472,1.144 0.736,2.376 1.112,3.568 0.424,1.376 0.92,2.736 1.2,4.136 0.48,2.472 0.768,5.016 0.768,7.624 0,2.504 -0.296,4.928 -0.736,7.304 -0.232,1.224 -0.624,2.432 -0.976,3.648 C 297.488,259.664 282.232,272 264,272 v 16 c 21.928,0 40.896,-12.704 50.088,-31.104 30.64,4.88 53.912,31.576 53.912,63.104 0,13.76 -4.368,26.904 -12.632,38.048 l -0.208,0.288 C 343.096,374.4 324.12,384 304,384 v 16 c 21.712,0 42.328,-8.968 57.28,-24.312 4.344,7.344 6.72,15.704 6.72,24.312 0,1.784 -0.168,3.728 -0.448,5.936 -2.56,20.8 -18.048,37.072 -37.992,41.072 z M 440,480 c -10.64,0 -20.656,-4.144 -28.208,-11.648 l -6.088,-6.056 -5.608,6.504 C 393.944,475.912 385.168,480 376,480 c -13.672,0 -25.64,-8.912 -30.024,-21.52 17.432,-7.704 30.784,-22.936 35.808,-41.912 4.456,0.832 8.72,2.584 12.528,5.256 l 0.872,0.608 C 403.208,428.472 408,437.936 408,448 h 16 c 0,-12.88 -5.256,-25.072 -14.248,-34.008 C 417.288,405.16 428.16,400 440,400 c 22.056,0 40,17.944 40,40 0,22.056 -17.944,40 -40,40 z"
   id="path1"
   style="fill:#c3d7ee;fill-opacity:1" />&#10;			<path
   d="m 408,296 c 0,17.648 14.352,32 32,32 17.648,0 32,-14.352 32,-32 0,-17.648 -14.352,-32 -32,-32 -17.648,0 -32,14.352 -32,32 z m 48,0 c 0,8.824 -7.176,16 -16,16 -8.824,0 -16,-7.176 -16,-16 0,-8.824 7.176,-16 16,-16 8.824,0 16,7.176 16,16 z"
   id="path2"
   style="fill:#c3d7ee;fill-opacity:1" />&#10;			<path
   d="m 400,240 c 22.056,0 40,-17.944 40,-40 0,-22.056 -17.944,-40 -40,-40 -22.056,0 -40,17.944 -40,40 0,22.056 17.944,40 40,40 z m 0,-64 c 13.232,0 24,10.768 24,24 0,13.232 -10.768,24 -24,24 -13.232,0 -24,-10.768 -24,-24 0,-13.232 10.768,-24 24,-24 z"
   id="path3"
   style="fill:#c3d7ee;fill-opacity:1" />&#10;			<path
   d="m 112,352 c -17.648,0 -32,14.352 -32,32 0,17.648 14.352,32 32,32 17.648,0 32,-14.352 32,-32 0,-17.648 -14.352,-32 -32,-32 z m 0,48 c -8.824,0 -16,-7.176 -16,-16 0,-8.824 7.176,-16 16,-16 8.824,0 16,7.176 16,16 0,8.824 -7.176,16 -16,16 z"
   id="path4"
   style="fill:#c3d7ee;fill-opacity:1" />&#10;			<path
   d="m 240,432 c 0,-26.472 -21.528,-48 -48,-48 -26.472,0 -48,21.528 -48,48 0,26.472 21.528,48 48,48 26.472,0 48,-21.528 48,-48 z m -48,32 c -17.648,0 -32,-14.352 -32,-32 0,-17.648 14.352,-32 32,-32 17.648,0 32,14.352 32,32 0,17.648 -14.352,32 -32,32 z"
   id="path5"
   style="fill:#c3d7ee;fill-opacity:1" />&#10;		</g>&#10;	</g>&#10;</g></g><path
       style="font-size:78.5407px;font-family:Poppins;-inkscape-font-specification:Poppins;fill:#1a658f;stroke-width:0.237979"
       d="m 59.808646,123.2817 v 54.35017 H 52.661442 V 137.10486 L 34.59708,177.63187 H 29.570475 L 11.427573,137.02632 v 40.60555 H 4.2803689 V 123.2817 h 7.6969891 l 20.10642,44.92528 20.10642,-44.92528 z m 19.242325,-0.3927 v 54.74287 H 71.903767 V 122.889 Z m 9.503297,27.33216 q 0,-8.01115 3.612872,-14.37295 3.612872,-6.44034 9.81759,-10.05321 6.28325,-3.61287 13.9017,-3.61287 8.95364,0 15.6296,4.31974 6.67596,4.31974 9.73905,12.25235 h -8.56094 q -2.27768,-4.94807 -6.59742,-7.61845 -4.24119,-2.67038 -10.21029,-2.67038 -5.73347,0 -10.28883,2.67038 -4.55536,2.67038 -7.147204,7.61845 -2.591843,4.86952 -2.591843,11.46694 0,6.51888 2.591843,11.46694 2.591844,4.86953 7.147204,7.53991 4.55536,2.67039 10.28883,2.67039 5.9691,0 10.21029,-2.59185 4.31974,-2.67038 6.59742,-7.61845 h 8.56094 q -3.06309,7.85407 -9.73905,12.17381 -6.67596,4.2412 -15.6296,4.2412 -7.61845,0 -13.9017,-3.53433 -6.204718,-3.61287 -9.81759,-9.97467 -3.612872,-6.3618 -3.612872,-14.37295 z M 207.3863,123.2817 v 54.35017 h -7.14721 v -40.52701 l -18.06436,40.52701 h -5.0266 l -18.14291,-40.60555 v 40.60555 h -7.1472 V 123.2817 h 7.69699 l 20.10642,44.92528 20.10642,-44.92528 z"
       id="text1"
       aria-label="MICM" /></g></svg>
