<?xml version="1.0" encoding="UTF-8" standalone="no"?>
<!-- Uploaded to: SVG Repo, www.svgrepo.com, Generator: SVG Repo Mixer Tools -->

<svg
   height="800px"
   width="800px"
   version="1.1"
   id="Layer_1"
   viewBox="0 0 500 500"
   xml:space="preserve"
   sodipodi:docname="micm-1.svg"
   inkscape:version="1.3 (0e150ed, 2023-07-21)"
   xmlns:inkscape="http://www.inkscape.org/namespaces/inkscape"
   xmlns:sodipodi="http://sodipodi.sourceforge.net/DTD/sodipodi-0.dtd"
   xmlns="http://www.w3.org/2000/svg"
   xmlns:svg="http://www.w3.org/2000/svg"><defs
   id="defs36" /><sodipodi:namedview
   id="namedview36"
   pagecolor="#ffffff"
   bordercolor="#000000"
   borderopacity="0.25"
   inkscape:showpageshadow="2"
   inkscape:pageopacity="0.0"
   inkscape:pagecheckerboard="0"
   inkscape:deskcolor="#d1d1d1"
   inkscape:zoom="0.295"
   inkscape:cx="400"
   inkscape:cy="400"
   inkscape:window-width="1728"
   inkscape:window-height="1051"
   inkscape:window-x="0"
   inkscape:window-y="38"
   inkscape:window-maximized="1"
   inkscape:current-layer="Layer_1" />&#10;<g
   id="g2"
   style="fill:#53565a;fill-opacity:1">&#10;	<path
   style="fill:#53565a;fill-opacity:1"
   d="M56,96v308c0,20.8,19.2,40,40,40h308c20.8,0,36-19.2,36-40V98c0-22-16-38-38-38H96   C75.2,60,56,75.2,56,96z"
   id="path1" />&#10;	<path
   style="fill:#53565a;fill-opacity:1"
   d="M405.2,80H98.4C88.4,80,76,84,76,94v308c0,9.6,12.4,22,22.4,22h308c10,0,13.6-12.4,13.6-22V94   C420,84.4,415.2,80,405.2,80z"
   id="path2" />&#10;</g>&#10;<path
   d="M402,450H94c-24.4,0-44-19.6-44-44V98c0-24.4,19.6-44,44-44h308c24.4,0,44,19.6,44,44v308C446,430.4,426.4,450,402,450z   M94,62c-20,0-36,16-36,36v308c0,20,16,36,36,36h308c20,0,36-16,36-36V98c0-20-16-36-36-36H94z"
   id="path3" />&#10;<path
   d="M230,60c-2.4,0-4-1.6-4-4V4c0-2.4,1.6-4,4-4s4,1.6,4,4v52C234,58.4,232.4,60,230,60z"
   id="path4" />&#10;<path
   d="M190,60c-2.4,0-4-1.6-4-4V4c0-2.4,1.6-4,4-4s4,1.6,4,4v52C194,58.4,192.4,60,190,60z"
   id="path5" />&#10;<path
   d="M150,60c-2.4,0-4-1.6-4-4V4c0-2.4,1.6-4,4-4s4,1.6,4,4v52C154,58.4,152.4,60,150,60z"
   id="path6" />&#10;<path
   d="M110,60c-2.4,0-4-1.6-4-4V4c0-2.4,1.6-4,4-4s4,1.6,4,4v52C114,58.4,112.4,60,110,60z"
   id="path7" />&#10;<path
   d="M390,60c-2.4,0-4-1.6-4-4V4c0-2.4,1.6-4,4-4s4,1.6,4,4v52C394,58.4,392.4,60,390,60z"
   id="path8" />&#10;<path
   d="M350,60c-2.4,0-4-1.6-4-4V4c0-2.4,1.6-4,4-4s4,1.6,4,4v52C354,58.4,352.4,60,350,60z"
   id="path9" />&#10;<path
   d="M310,60c-2.4,0-4-1.6-4-4V4c0-2.4,1.6-4,4-4s4,1.6,4,4v52C314,58.4,312.4,60,310,60z"
   id="path10" />&#10;<path
   d="M270,60c-2.4,0-4-1.6-4-4V4c0-2.4,1.6-4,4-4s4,1.6,4,4v52C274,58.4,272.4,60,270,60z"
   id="path11" />&#10;<path
   d="M230,500c-2.4,0-4-1.6-4-4v-48c0-2.4,1.6-4,4-4s4,1.6,4,4v48C234,498.4,232.4,500,230,500z"
   id="path12" />&#10;<path
   d="M190,500c-2.4,0-4-1.6-4-4v-48c0-2.4,1.6-4,4-4s4,1.6,4,4v48C194,498.4,192.4,500,190,500z"
   id="path13" />&#10;<path
   d="M150,500c-2.4,0-4-1.6-4-4v-48c0-2.4,1.6-4,4-4s4,1.6,4,4v48C154,498.4,152.4,500,150,500z"
   id="path14" />&#10;<path
   d="M110,500c-2.4,0-4-1.6-4-4v-48c0-2.4,1.6-4,4-4s4,1.6,4,4v48C114,498.4,112.4,500,110,500z"
   id="path15" />&#10;<path
   d="M390,500c-2.4,0-4-1.6-4-4v-48c0-2.4,1.6-4,4-4s4,1.6,4,4v48C394,498.4,392.4,500,390,500z"
   id="path16" />&#10;<path
   d="M350,500c-2.4,0-4-1.6-4-4v-48c0-2.4,1.6-4,4-4s4,1.6,4,4v48C354,498.4,352.4,500,350,500z"
   id="path17" />&#10;<path
   d="M310,500c-2.4,0-4-1.6-4-4v-48c0-2.4,1.6-4,4-4s4,1.6,4,4v48C314,498.4,312.4,500,310,500z"
   id="path18" />&#10;<path
   d="M270,500c-2.4,0-4-1.6-4-4v-48c0-2.4,1.6-4,4-4s4,1.6,4,4v48C274,498.4,272.4,500,270,500z"
   id="path19" />&#10;<path
   d="M52,278H4c-2.4,0-4-1.6-4-4s1.6-4,4-4h48c2.4,0,4,1.6,4,4S54.4,278,52,278z"
   id="path20" />&#10;<path
   d="M52,318H4c-2.4,0-4-1.6-4-4s1.6-4,4-4h48c2.4,0,4,1.6,4,4S54.4,318,52,318z"
   id="path21" />&#10;<path
   d="M52,358H4c-2.4,0-4-1.6-4-4s1.6-4,4-4h48c2.4,0,4,1.6,4,4S54.4,358,52,358z"
   id="path22" />&#10;<path
   d="M52,398H4c-2.4,0-4-1.6-4-4s1.6-4,4-4h48c2.4,0,4,1.6,4,4S54.4,398,52,398z"
   id="path23" />&#10;<path
   d="M52,118H4c-2.4,0-4-1.6-4-4s1.6-4,4-4h48c2.4,0,4,1.6,4,4S54.4,118,52,118z"
   id="path24" />&#10;<path
   d="M52,158H4c-2.4,0-4-1.6-4-4s1.6-4,4-4h48c2.4,0,4,1.6,4,4S54.4,158,52,158z"
   id="path25" />&#10;<path
   d="M52,198H4c-2.4,0-4-1.6-4-4s1.6-4,4-4h48c2.4,0,4,1.6,4,4S54.4,198,52,198z"
   id="path26" />&#10;<path
   d="M52,238H4c-2.4,0-4-1.6-4-4s1.6-4,4-4h48c2.4,0,4,1.6,4,4S54.4,238,52,238z"
   id="path27" />&#10;<path
   d="M496,278h-52c-2.4,0-4-1.6-4-4s1.6-4,4-4h52c2.4,0,4,1.6,4,4S498.4,278,496,278z"
   id="path28" />&#10;<path
   d="M496,318h-52c-2.4,0-4-1.6-4-4s1.6-4,4-4h52c2.4,0,4,1.6,4,4S498.4,318,496,318z"
   id="path29" />&#10;<path
   d="M496,358h-52c-2.4,0-4-1.6-4-4s1.6-4,4-4h52c2.4,0,4,1.6,4,4S498.4,358,496,358z"
   id="path30" />&#10;<path
   d="M496,398h-52c-2.4,0-4-1.6-4-4s1.6-4,4-4h52c2.4,0,4,1.6,4,4S498.4,398,496,398z"
   id="path31" />&#10;<path
   d="M496,118h-52c-2.4,0-4-1.6-4-4s1.6-4,4-4h52c2.4,0,4,1.6,4,4S498.4,118,496,118z"
   id="path32" />&#10;<path
   d="M496,158h-52c-2.4,0-4-1.6-4-4s1.6-4,4-4h52c2.4,0,4,1.6,4,4S498.4,158,496,158z"
   id="path33" />&#10;<path
   d="M496,198h-52c-2.4,0-4-1.6-4-4s1.6-4,4-4h52c2.4,0,4,1.6,4,4S498.4,198,496,198z"
   id="path34" />&#10;<path
   d="M496,238h-52c-2.4,0-4-1.6-4-4s1.6-4,4-4h52c2.4,0,4,1.6,4,4S498.4,238,496,238z"
   id="path35" />&#10;<path
   d="M406.4,430h-308C85.2,430,70,414.8,70,402V94c0-13.2,14.4-20,28.4-20H368c2.4,0,4,1.6,4,4s-1.6,4-4,4H98.4  c-8,0-20.4,3.2-20.4,12v308c0,8.8,11.2,20,20.4,20h308c8.4,0,11.6-12,11.6-20V94c0-8.4-6-14-14.8-14c-2.4,0-4-1.6-4-4s1.6-4,4-4  c13.6,0,22.8,9.2,22.8,22v308C426,415.2,420,430,406.4,430z"
   id="path36" />&#10;<path
   d="m 164.7748,132.92837 v 100.64171 h -13.23467 v -75.04497 l -33.45028,75.04497 h -9.30791 L 75.186224,158.37967 v 75.19041 H 61.951548 V 132.92837 h 14.252728 l 37.231614,83.18939 37.23162,-83.18939 z m 35.63156,-0.72718 V 233.57008 H 187.17168 V 132.20119 Z m 17.59753,50.61173 q 0,-14.83447 6.69005,-26.61479 6.69006,-11.92575 18.1795,-18.61581 11.63488,-6.69006 25.74218,-6.69006 16.5797,0 28.94176,7.99898 12.36206,7.99898 18.03406,22.68802 h -15.85252 q -4.21764,-9.16247 -12.21662,-14.10729 -7.85355,-4.94483 -18.90668,-4.94483 -10.61683,0 -19.05212,4.94483 -8.43529,4.94482 -13.23468,14.10729 -4.79939,9.01703 -4.79939,21.23366 0,12.07119 4.79939,21.23365 4.79939,9.01704 13.23468,13.96186 8.43529,4.94483 19.05212,4.94483 11.05313,0 18.90668,-4.79939 7.99898,-4.94483 12.21662,-14.1073 h 15.85252 q -5.672,14.54361 -18.03406,22.54259 -12.36206,7.85354 -28.94176,7.85354 -14.1073,0 -25.74218,-6.54462 -11.48944,-6.69006 -18.1795,-18.47037 -6.69005,-11.78032 -6.69005,-26.61479 z m 220.04456,-49.88455 v 100.64171 h -13.23467 v -75.04497 l -33.45028,75.04497 h -9.30791 l -33.59571,-75.19041 v 75.19041 H 335.2252 V 132.92837 h 14.25273 l 37.23161,83.18939 37.23162,-83.18939 z"
   id="text36"
   style="font-size:145.436px;font-family:Poppins;-inkscape-font-specification:Poppins;fill:#a8c700;stroke-width:0.757482"
   aria-label="MICM" /><g
   style="fill:#c3d7ff;fill-opacity:1"
   id="g36"
   transform="matrix(0.26910195,0,0,0.26910195,183.26272,277.54238)"><g
     id="g7"
     style="fill:#c3d7ff;fill-opacity:1">&#10;	<g
   id="g6"
   style="fill:#c3d7ff;fill-opacity:1">&#10;		<g
   id="g5"
   style="fill:#c3d7ff;fill-opacity:1">&#10;			<path
   d="m 440,384 c -17.112,0 -32.84,7.608 -43.416,20.68 -4,-1.92 -8.232,-3.264 -12.592,-4.008 C 384,400.448 384,400.224 384,400 384,386.464 379.688,373.336 371.744,362.432 379.784,349.68 384,335.136 384,320 c 0,-38.536 -27.8,-71.336 -64.832,-78.48 0.032,-0.184 0.016,-0.368 0.048,-0.552 0.472,-2.928 0.784,-5.912 0.784,-8.968 0,-2.024 -0.12,-4.024 -0.328,-5.992 -0.04,-0.336 -0.112,-0.672 -0.152,-1.016 -0.208,-1.672 -0.472,-3.328 -0.832,-4.96 -0.016,-0.064 -0.016,-0.136 -0.032,-0.2 C 343.368,210.568 360,187.04 360,160 360,141.96 352.576,125.176 339.448,113.08 342.472,105.008 344,96.6 344,88 344,48.296 311.704,16 272,16 260.04,16 248.344,18.976 237.848,24.656 225.464,16.784 210.216,14.112 195.728,17.368 183.904,6.272 168.224,0 152,0 116.712,0 88,28.712 88,64 c 0,14.728 5.176,28.76 14.184,40 H 88 v 16 h 16 V 261.816 L 6.352,427.064 C 2.192,434.104 0,442.144 0,450.304 0,475.504 20.504,496 45.696,496 h 228.608 c 20.496,0 37.88,-13.56 43.656,-32.184 0.688,0.024 1.36,0.144 2.04,0.144 V 464 c 0.128,0 0.248,-0.016 0.376,-0.016 0.232,0 0.464,-0.024 0.696,-0.032 3,-0.048 5.944,-0.328 8.832,-0.768 0.232,-0.04 0.48,-0.024 0.712,-0.064 6.408,19.24 24.608,32.88 45.384,32.88 11.168,0 21.912,-3.984 30.488,-11.128 9.632,7.224 21.28,11.128 33.512,11.128 30.872,0 56,-25.128 56,-56 0,-30.872 -25.128,-56 -56,-56 z M 120,266.184 V 120 h 80 v 136.64 c -27.088,3.904 -48,27.208 -48,55.36 0,2.72 0.264,5.376 0.64,8 H 88.2 Z M 274.304,480 H 192 45.696 C 29.32,480 16,466.68 16,450.304 16,445 17.432,439.776 20.136,435.192 L 78.744,336 h 78.736 c 9.008,18.888 28.24,32 50.52,32 0.264,0 0.528,0 0.808,-0.008 C 212.512,386.232 228.68,400 248,400 c 9.736,0 18.544,-3.632 25.488,-9.432 l 26.376,44.624 C 302.568,439.776 304,445 304,450.304 304,466.68 290.68,480 274.304,480 Z m 55.256,-32.992 c -0.256,0.048 -0.512,0.12 -0.768,0.168 -2.528,0.464 -5.144,0.672 -7.792,0.728 -0.384,0.008 -0.768,0.024 -1.152,0.024 -0.384,-7.336 -2.44,-14.512 -6.192,-20.872 L 284.064,377 C 286.52,371.824 288,366.104 288,360 h -16 c 0,13.232 -10.768,24 -24,24 -13.232,0 -24,-10.768 -24.048,-23.216 l 0.12,-11.016 -9.36,1.616 C 212.304,351.8 210.112,352 208,352 c -22.056,0 -40,-17.944 -40,-40 0,-22.056 17.944,-40 40,-40 22.056,0 40,17.944 40,40 h 16 c 0,-28.152 -20.912,-51.456 -48,-55.36 V 120 h 16 V 104 H 216 201.824 C 210.832,92.8 216,78.816 216,64 h -16 c 0,16.144 -8.04,31.064 -21.488,40 h -54.36 l 0.416,-0.6 C 111.688,94.408 104,79.68 104,64 c 0,-26.472 21.528,-48 48,-48 13.4,0 26.312,5.72 35.424,15.696 l 3.464,3.8 4.888,-1.568 c 12.568,-4.024 26.392,-1.552 36.776,6.544 l 1.168,0.912 C 242.792,49.016 248,60.152 248,72 h 16 c 0,-13.224 -4.688,-25.784 -13,-35.76 6.664,-2.72 13.752,-4.24 21,-4.24 30.872,0 56,25.128 56,56 0,8.28 -1.832,16.344 -5.456,23.976 l -0.088,0.192 C 313.168,131.52 293.52,144 272,144 v 16 c 24.16,0 46.472,-12.248 59.712,-31.904 7.856,8.72 12.288,19.928 12.288,31.904 0,20.288 -12.552,37.832 -31.112,44.768 C 303.304,187.632 284.992,176 264,176 v 16 c 16.488,0 30.672,10.04 36.784,24.32 l 0.136,0.352 c 0.472,1.144 0.736,2.376 1.112,3.568 0.424,1.376 0.92,2.736 1.2,4.136 0.48,2.472 0.768,5.016 0.768,7.624 0,2.504 -0.296,4.928 -0.736,7.304 -0.232,1.224 -0.624,2.432 -0.976,3.648 C 297.488,259.664 282.232,272 264,272 v 16 c 21.928,0 40.896,-12.704 50.088,-31.104 30.64,4.88 53.912,31.576 53.912,63.104 0,13.76 -4.368,26.904 -12.632,38.048 l -0.208,0.288 C 343.096,374.4 324.12,384 304,384 v 16 c 21.712,0 42.328,-8.968 57.28,-24.312 4.344,7.344 6.72,15.704 6.72,24.312 0,1.784 -0.168,3.728 -0.448,5.936 -2.56,20.8 -18.048,37.072 -37.992,41.072 z M 440,480 c -10.64,0 -20.656,-4.144 -28.208,-11.648 l -6.088,-6.056 -5.608,6.504 C 393.944,475.912 385.168,480 376,480 c -13.672,0 -25.64,-8.912 -30.024,-21.52 17.432,-7.704 30.784,-22.936 35.808,-41.912 4.456,0.832 8.72,2.584 12.528,5.256 l 0.872,0.608 C 403.208,428.472 408,437.936 408,448 h 16 c 0,-12.88 -5.256,-25.072 -14.248,-34.008 C 417.288,405.16 428.16,400 440,400 c 22.056,0 40,17.944 40,40 0,22.056 -17.944,40 -40,40 z"
   id="path1-0"
   style="fill:#c3d7ff;fill-opacity:1" />&#10;			<path
   d="m 408,296 c 0,17.648 14.352,32 32,32 17.648,0 32,-14.352 32,-32 0,-17.648 -14.352,-32 -32,-32 -17.648,0 -32,14.352 -32,32 z m 48,0 c 0,8.824 -7.176,16 -16,16 -8.824,0 -16,-7.176 -16,-16 0,-8.824 7.176,-16 16,-16 8.824,0 16,7.176 16,16 z"
   id="path2-5"
   style="fill:#c3d7ff;fill-opacity:1" />&#10;			<path
   d="m 400,240 c 22.056,0 40,-17.944 40,-40 0,-22.056 -17.944,-40 -40,-40 -22.056,0 -40,17.944 -40,40 0,22.056 17.944,40 40,40 z m 0,-64 c 13.232,0 24,10.768 24,24 0,13.232 -10.768,24 -24,24 -13.232,0 -24,-10.768 -24,-24 0,-13.232 10.768,-24 24,-24 z"
   id="path3-2"
   style="fill:#c3d7ff;fill-opacity:1" />&#10;			<path
   d="m 112,352 c -17.648,0 -32,14.352 -32,32 0,17.648 14.352,32 32,32 17.648,0 32,-14.352 32,-32 0,-17.648 -14.352,-32 -32,-32 z m 0,48 c -8.824,0 -16,-7.176 -16,-16 0,-8.824 7.176,-16 16,-16 8.824,0 16,7.176 16,16 0,8.824 -7.176,16 -16,16 z"
   id="path4-2"
   style="fill:#c3d7ff;fill-opacity:1" />&#10;			<path
   d="m 240,432 c 0,-26.472 -21.528,-48 -48,-48 -26.472,0 -48,21.528 -48,48 0,26.472 21.528,48 48,48 26.472,0 48,-21.528 48,-48 z m -48,32 c -17.648,0 -32,-14.352 -32,-32 0,-17.648 14.352,-32 32,-32 17.648,0 32,14.352 32,32 0,17.648 -14.352,32 -32,32 z"
   id="path5-7"
   style="fill:#c3d7ff;fill-opacity:1" />&#10;		</g>&#10;	</g>&#10;</g></g></svg>
