<?xml version="1.0" encoding="iso-8859-1"?>
<!-- Uploaded to: SVG Repo, www.svgrepo.com, Generator: SVG Repo Mixer Tools -->
<svg fill="#000000" height="800px" width="800px" version="1.1" id="Layer_1" xmlns="http://www.w3.org/2000/svg" xmlns:xlink="http://www.w3.org/1999/xlink" 
	 viewBox="0 0 230.569 230.569" xml:space="preserve">
<g>
	<g>
		<path d="M230.569,51.466c0-11.351-9.236-20.587-20.587-20.587c-9.453,0-17.356,6.442-19.762,15.14l-17.345-2.287
			c0.005-0.17,0.051-0.329,0.051-0.501c0-9.083-7.388-16.469-16.469-16.469s-16.469,7.386-16.469,16.469
			c0,4.258,1.666,8.107,4.327,11.033l-7.167,17.917c-0.426-0.044-0.84-0.129-1.278-0.129c-6.811,0-12.352,5.541-12.352,12.352
			s5.541,12.352,12.352,12.352c6.811,0,12.352-5.541,12.352-12.352c0-3.398-1.381-6.478-3.608-8.713l6.751-16.878
			c1.613,0.529,3.304,0.887,5.091,0.887c5.964,0,11.149-3.217,14.039-7.977l19.181,2.528c1.117,8.136,6.953,14.712,14.691,16.924
			l-9.608,25.622c-14.379,0.434-25.951,12.239-25.951,26.721c0,5.877,1.927,11.301,5.152,15.721l-18.205,14.564
			c-5.786-9.498-16.209-15.874-28.12-15.874c-16.734,0-30.562,12.554-32.639,28.732l-22.038-6.578
			c0.743-2.454,1.152-5.051,1.152-7.743c0-14.756-12.006-26.762-26.762-26.762c-3.342,0-6.529,0.643-9.481,1.767l-4.782-14.346
			c4.882-3.767,8.087-9.612,8.087-16.242c0-11.351-9.236-20.587-20.587-20.587C9.234,76.17,0,85.406,0,96.757
			s9.236,20.587,20.587,20.587c1.746,0,3.414-0.285,5.035-0.696l4.956,14.869c-6.085,4.91-9.991,12.416-9.991,20.825
			c0,14.756,12.006,26.762,26.762,26.762c9.091,0,17.126-4.566,21.965-11.516l24.206,7.225c0.394,0.117,0.79,0.173,1.18,0.173
			c0.095,0,0.183-0.038,0.277-0.045c2.016,16.244,15.879,28.866,32.659,28.866c18.162,0,32.938-14.777,32.938-32.938
			c0-3.227-0.487-6.338-1.355-9.287l20.396-16.317c0.068-0.054,0.096-0.133,0.16-0.191c4.434,3.258,9.885,5.208,15.797,5.208
			c14.756,0,26.762-12.006,26.762-26.762c0-12.121-8.107-22.371-19.178-25.651l9.793-26.115
			C222.888,70.3,230.569,61.801,230.569,51.466z M135.871,88.522c-2.27,0-4.117-1.845-4.117-4.117c0-2.272,1.847-4.117,4.117-4.117
			c2.27,0,4.117,1.845,4.117,4.117C139.988,86.677,138.141,88.522,135.871,88.522z M156.458,51.466
			c-4.541,0-8.235-3.695-8.235-8.235c0-4.54,3.693-8.235,8.235-8.235c4.541,0,8.235,3.695,8.235,8.235
			C164.693,47.771,160.999,51.466,156.458,51.466z M20.587,109.109c-6.811,0-12.352-5.541-12.352-12.352
			c0-6.811,5.541-12.352,12.352-12.352c6.811,0,12.352,5.541,12.352,12.352C32.939,103.568,27.398,109.109,20.587,109.109z
			 M47.349,170.868c-10.217,0-18.528-8.311-18.528-18.528c0-10.217,8.311-18.528,18.528-18.528s18.528,8.311,18.528,18.528
			C65.877,162.557,57.566,170.868,47.349,170.868z M127.636,195.572c-13.623,0-24.704-11.081-24.704-24.704
			c0-13.623,11.081-24.704,24.704-24.704c13.623,0,24.704,11.081,24.704,24.704S141.259,195.572,127.636,195.572z M214.1,123.519
			c0,10.217-8.311,18.528-18.528,18.528s-18.528-8.311-18.528-18.528s8.311-18.528,18.528-18.528S214.1,113.302,214.1,123.519z
			 M197.631,51.466c0-6.811,5.541-12.352,12.352-12.352c6.811,0,12.352,5.541,12.352,12.352c0,6.811-5.541,12.352-12.352,12.352
			C203.171,63.818,197.631,58.278,197.631,51.466z"/>
	</g>
</g>
</svg>