<?xml version="1.0" encoding="iso-8859-1"?>
<!-- Uploaded to: SVG Repo, www.svgrepo.com, Generator: SVG Repo Mixer Tools -->
<svg fill="#000000" height="800px" width="800px" version="1.1" id="Layer_1" xmlns="http://www.w3.org/2000/svg" xmlns:xlink="http://www.w3.org/1999/xlink" 
	 viewBox="0 0 496 496" xml:space="preserve">
<g>
	<g>
		<g>
			<path d="M440,384c-17.112,0-32.84,7.608-43.416,20.68c-4-1.92-8.232-3.264-12.592-4.008C384,400.448,384,400.224,384,400
				c0-13.536-4.312-26.664-12.256-37.568C379.784,349.68,384,335.136,384,320c0-38.536-27.8-71.336-64.832-78.48
				c0.032-0.184,0.016-0.368,0.048-0.552C319.688,238.04,320,235.056,320,232c0-2.024-0.12-4.024-0.328-5.992
				c-0.04-0.336-0.112-0.672-0.152-1.016c-0.208-1.672-0.472-3.328-0.832-4.96c-0.016-0.064-0.016-0.136-0.032-0.2
				C343.368,210.568,360,187.04,360,160c0-18.04-7.424-34.824-20.552-46.92C342.472,105.008,344,96.6,344,88
				c0-39.704-32.296-72-72-72c-11.96,0-23.656,2.976-34.152,8.656c-12.384-7.872-27.632-10.544-42.12-7.288
				C183.904,6.272,168.224,0,152,0c-35.288,0-64,28.712-64,64c0,14.728,5.176,28.76,14.184,40H88v16h16v141.816L6.352,427.064
				C2.192,434.104,0,442.144,0,450.304C0,475.504,20.504,496,45.696,496h228.608c20.496,0,37.88-13.56,43.656-32.184
				c0.688,0.024,1.36,0.144,2.04,0.144V464c0.128,0,0.248-0.016,0.376-0.016c0.232,0,0.464-0.024,0.696-0.032
				c3-0.048,5.944-0.328,8.832-0.768c0.232-0.04,0.48-0.024,0.712-0.064C337.024,482.36,355.224,496,376,496
				c11.168,0,21.912-3.984,30.488-11.128C416.12,492.096,427.768,496,440,496c30.872,0,56-25.128,56-56S470.872,384,440,384z
				 M120,266.184V120h80v136.64c-27.088,3.904-48,27.208-48,55.36c0,2.72,0.264,5.376,0.64,8H88.2L120,266.184z M274.304,480H192
				H45.696C29.32,480,16,466.68,16,450.304c0-5.304,1.432-10.528,4.136-15.112L78.744,336h78.736c9.008,18.888,28.24,32,50.52,32
				c0.264,0,0.528,0,0.808-0.008C212.512,386.232,228.68,400,248,400c9.736,0,18.544-3.632,25.488-9.432l26.376,44.624
				C302.568,439.776,304,445,304,450.304C304,466.68,290.68,480,274.304,480z M329.56,447.008c-0.256,0.048-0.512,0.12-0.768,0.168
				c-2.528,0.464-5.144,0.672-7.792,0.728c-0.384,0.008-0.768,0.024-1.152,0.024c-0.384-7.336-2.44-14.512-6.192-20.872L284.064,377
				c2.456-5.176,3.936-10.896,3.936-17h-16c0,13.232-10.768,24-24,24s-24-10.768-24.048-23.216l0.12-11.016l-9.36,1.616
				C212.304,351.8,210.112,352,208,352c-22.056,0-40-17.944-40-40c0-22.056,17.944-40,40-40c22.056,0,40,17.944,40,40h16
				c0-28.152-20.912-51.456-48-55.36V120h16v-16h-16h-14.176C210.832,92.8,216,78.816,216,64h-16c0,16.144-8.04,31.064-21.488,40
				h-54.36l0.416-0.6C111.688,94.408,104,79.68,104,64c0-26.472,21.528-48,48-48c13.4,0,26.312,5.72,35.424,15.696l3.464,3.8
				l4.888-1.568c12.568-4.024,26.392-1.552,36.776,6.544l1.168,0.912C242.792,49.016,248,60.152,248,72h16
				c0-13.224-4.688-25.784-13-35.76c6.664-2.72,13.752-4.24,21-4.24c30.872,0,56,25.128,56,56c0,8.28-1.832,16.344-5.456,23.976
				l-0.088,0.192C313.168,131.52,293.52,144,272,144v16c24.16,0,46.472-12.248,59.712-31.904C339.568,136.816,344,148.024,344,160
				c0,20.288-12.552,37.832-31.112,44.768C303.304,187.632,284.992,176,264,176v16c16.488,0,30.672,10.04,36.784,24.32l0.136,0.352
				c0.472,1.144,0.736,2.376,1.112,3.568c0.424,1.376,0.92,2.736,1.2,4.136c0.48,2.472,0.768,5.016,0.768,7.624
				c0,2.504-0.296,4.928-0.736,7.304c-0.232,1.224-0.624,2.432-0.976,3.648C297.488,259.664,282.232,272,264,272v16
				c21.928,0,40.896-12.704,50.088-31.104C344.728,261.776,368,288.472,368,320c0,13.76-4.368,26.904-12.632,38.048l-0.208,0.288
				C343.096,374.4,324.12,384,304,384v16c21.712,0,42.328-8.968,57.28-24.312c4.344,7.344,6.72,15.704,6.72,24.312
				c0,1.784-0.168,3.728-0.448,5.936C364.992,426.736,349.504,443.008,329.56,447.008z M440,480
				c-10.64,0-20.656-4.144-28.208-11.648l-6.088-6.056l-5.608,6.504C393.944,475.912,385.168,480,376,480
				c-13.672,0-25.64-8.912-30.024-21.52c17.432-7.704,30.784-22.936,35.808-41.912c4.456,0.832,8.72,2.584,12.528,5.256l0.872,0.608
				C403.208,428.472,408,437.936,408,448h16c0-12.88-5.256-25.072-14.248-34.008C417.288,405.16,428.16,400,440,400
				c22.056,0,40,17.944,40,40C480,462.056,462.056,480,440,480z"/>
			<path d="M408,296c0,17.648,14.352,32,32,32s32-14.352,32-32s-14.352-32-32-32S408,278.352,408,296z M456,296
				c0,8.824-7.176,16-16,16c-8.824,0-16-7.176-16-16c0-8.824,7.176-16,16-16C448.824,280,456,287.176,456,296z"/>
			<path d="M400,240c22.056,0,40-17.944,40-40c0-22.056-17.944-40-40-40c-22.056,0-40,17.944-40,40C360,222.056,377.944,240,400,240
				z M400,176c13.232,0,24,10.768,24,24s-10.768,24-24,24s-24-10.768-24-24S386.768,176,400,176z"/>
			<path d="M112,352c-17.648,0-32,14.352-32,32s14.352,32,32,32s32-14.352,32-32S129.648,352,112,352z M112,400
				c-8.824,0-16-7.176-16-16c0-8.824,7.176-16,16-16c8.824,0,16,7.176,16,16C128,392.824,120.824,400,112,400z"/>
			<path d="M240,432c0-26.472-21.528-48-48-48s-48,21.528-48,48s21.528,48,48,48S240,458.472,240,432z M192,464
				c-17.648,0-32-14.352-32-32s14.352-32,32-32s32,14.352,32,32S209.648,464,192,464z"/>
		</g>
	</g>
</g>
</svg>